<svg width="2480" height="1655" viewBox="0 0 2480 1655" fill="none" xmlns="http://www.w3.org/2000/svg">
<path d="M1523.93 455L1410 337.274L1750.07 4.12563e-06L1864 117.726L1523.93 455Z" fill="#FFD600"/>
<path d="M652 928.51L769.336 814L1100 1161.49L982.664 1276L652 928.51Z" fill="#FFD600"/>
<path d="M1899 646.368C1899 671.369 1892.82 694.311 1880.51 715.168C1868.19 736.025 1851.85 752.702 1831.5 765.235C1811.14 777.736 1788.86 784 1764.62 784C1739.95 784 1717.38 777.732 1696.79 765.235C1676.28 752.702 1659.81 736.025 1647.49 715.168C1635.17 694.311 1629 671.369 1629 646.368C1629 621.764 1635.18 599.121 1647.49 578.498C1659.81 557.84 1676.28 541.262 1696.79 528.765C1717.38 516.233 1739.95 510 1764.62 510C1788.87 510 1811.15 516.233 1831.5 528.765C1851.86 541.266 1868.19 557.844 1880.51 578.498C1892.82 599.121 1899 621.768 1899 646.368ZM1826.27 646.368C1826.27 628.827 1820.29 614.04 1808.37 601.937C1796.47 589.869 1781.87 583.8 1764.62 583.8C1746.55 583.8 1731.55 589.869 1719.63 601.937C1707.7 614.04 1701.72 628.827 1701.72 646.368C1701.72 664.305 1707.7 679.423 1719.63 691.725C1731.55 704.027 1746.55 710.16 1764.62 710.16C1781.87 710.16 1796.47 704.027 1808.37 691.725C1820.29 679.427 1826.27 664.305 1826.27 646.368Z" fill="#FFD600"/>
<path d="M2434.93 551.838L2360.54 697.328L1857.21 405.271L1931.6 259.78L2434.93 551.838Z" fill="#FFD600"/>
<path d="M2193 1598.06L2112.69 1652L1667 971.945L1747.31 918L2193 1598.06Z" fill="#FFD600"/>
<path d="M2281 1009.37C2281 1034.37 2274.82 1057.31 2262.51 1078.17C2250.19 1099.03 2233.85 1115.7 2213.5 1128.23C2193.14 1140.74 2170.86 1147 2146.62 1147C2121.95 1147 2099.38 1140.73 2078.79 1128.23C2058.28 1115.7 2041.81 1099.03 2029.49 1078.17C2017.17 1057.31 2011 1034.37 2011 1009.37C2011 984.764 2017.18 962.121 2029.49 941.498C2041.81 920.84 2058.28 904.262 2078.79 891.765C2099.38 879.233 2121.95 873 2146.62 873C2170.87 873 2193.15 879.233 2213.5 891.765C2233.86 904.266 2250.19 920.844 2262.51 941.498C2274.82 962.121 2281 984.768 2281 1009.37ZM2208.27 1009.37C2208.27 991.827 2202.29 977.04 2190.37 964.937C2178.47 952.869 2163.87 946.8 2146.62 946.8C2128.55 946.8 2113.55 952.869 2101.63 964.937C2089.7 977.04 2083.72 991.827 2083.72 1009.37C2083.72 1027.31 2089.7 1042.42 2101.63 1054.73C2113.55 1067.03 2128.55 1073.16 2146.62 1073.16C2163.87 1073.16 2178.47 1067.03 2190.37 1054.73C2202.29 1042.42 2208.27 1027.31 2208.27 1009.37Z" fill="#FFD600"/>
<path d="M712 1519.13C712 1494.22 718.177 1471.36 730.492 1450.58C742.806 1429.8 759.146 1413.18 779.499 1400.7C799.856 1388.24 822.138 1382 846.379 1382C871.047 1382 893.623 1388.25 914.207 1400.7C934.725 1413.18 951.194 1429.8 963.509 1450.58C975.823 1471.36 982 1494.22 982 1519.13C982 1543.64 975.823 1566.2 963.509 1586.75C951.19 1607.33 934.725 1623.85 914.207 1636.3C893.623 1648.79 871.047 1655 846.379 1655C822.134 1655 799.852 1648.79 779.499 1636.3C759.142 1623.85 742.806 1607.33 730.492 1586.75C718.177 1566.2 712 1543.64 712 1519.13ZM784.731 1519.13C784.731 1536.61 790.712 1551.34 802.635 1563.4C814.526 1575.42 829.134 1581.47 846.383 1581.47C864.451 1581.47 879.446 1575.42 891.373 1563.4C903.3 1551.34 909.277 1536.61 909.277 1519.13C909.277 1501.26 903.296 1486.19 891.373 1473.94C879.446 1461.68 864.451 1455.57 846.383 1455.57C829.13 1455.57 814.526 1461.68 802.635 1473.94C790.708 1486.19 784.731 1501.26 784.731 1519.13Z" fill="#FFD600"/>
<path d="M538.008 108L640.944 235.778L389.936 430.575L287 302.797L538.008 108Z" fill="#FFD600"/>
<path d="M1131 965.467C1131 927.235 1140.47 892.153 1159.35 860.258C1178.24 828.363 1203.29 802.86 1234.5 783.696C1265.71 764.579 1299.88 755 1337.05 755C1374.87 755 1409.49 764.585 1441.05 783.696C1472.51 802.86 1497.76 828.363 1516.65 860.258C1535.53 892.153 1545 927.234 1545 965.467C1545 1003.09 1535.53 1037.72 1516.65 1069.25C1497.76 1100.84 1472.51 1126.19 1441.05 1145.3C1409.49 1164.47 1374.87 1174 1337.05 1174C1299.87 1174 1265.71 1164.47 1234.5 1145.3C1203.28 1126.19 1178.24 1100.84 1159.35 1069.25C1140.47 1037.72 1131 1003.09 1131 965.467ZM1242.52 965.467C1242.52 992.289 1251.69 1014.9 1269.97 1033.41C1288.2 1051.86 1310.6 1061.15 1337.05 1061.15C1364.75 1061.15 1387.75 1051.86 1406.03 1033.41C1424.32 1014.9 1433.48 992.289 1433.48 965.467C1433.48 938.036 1424.31 914.918 1406.03 896.106C1387.75 877.294 1364.75 867.915 1337.05 867.915C1310.59 867.915 1288.2 877.294 1269.97 896.106C1251.69 914.912 1242.52 938.036 1242.52 965.467Z" fill="#FFD600"/>
<path d="M847 647.13C847 622.22 853.177 599.362 865.491 578.581C877.806 557.8 894.146 541.184 914.499 528.697C934.856 516.242 957.138 510 981.379 510C1006.05 510 1028.62 516.245 1049.21 528.697C1069.72 541.184 1086.19 557.8 1098.51 578.581C1110.83 599.362 1117 622.22 1117 647.13C1117 671.644 1110.82 694.205 1098.51 714.752C1086.19 735.335 1069.72 751.852 1049.21 764.303C1028.62 776.79 1006.05 783 981.379 783C957.134 783 934.852 776.79 914.499 764.303C894.142 751.848 877.806 735.331 865.491 714.752C853.173 694.205 847 671.64 847 647.13ZM919.727 647.13C919.727 664.606 925.708 679.34 937.631 691.399C949.522 703.422 964.13 709.47 981.379 709.47C999.447 709.47 1014.44 703.422 1026.37 691.399C1038.3 679.34 1044.27 664.606 1044.27 647.13C1044.27 629.258 1038.29 614.195 1026.37 601.938C1014.44 589.681 999.447 583.57 981.379 583.57C964.126 583.57 949.522 589.681 937.631 601.938C925.708 614.195 919.727 629.258 919.727 647.13Z" fill="#FFD600"/>
<path d="M573 1177L573 510L-1.45778e-05 843.499L573 1177Z" fill="#FFD600"/>
<path d="M1637 1650L1637 1229L1275 1439.5L1637 1650Z" fill="#FFD600"/>
<path d="M1242 479.208L1242 58.208L880 268.708L1242 479.208Z" fill="#FFD600"/>
</svg>
