<svg width="1367" height="939" viewBox="0 0 1367 939" fill="none" xmlns="http://www.w3.org/2000/svg">
<path d="M672.372 787.063L629.174 593.081L1095.47 397.136L1138.67 591.12L672.372 787.063Z" fill="#FFD600"/>
<path d="M1094.99 397.21L1272.63 414.972L1316 609.68L1138.37 591.918L1094.99 397.21Z" fill="#FF6A29"/>
<path d="M1138.22 590.72L1316.36 608.518L846.881 806.06L668.739 788.261L1138.22 590.72Z" fill="#06D7E2"/>
<path d="M355.868 456.082C355.751 456.009 355.64 455.919 355.523 455.846C353.733 454.745 351.911 453.733 350.067 452.772C349.589 452.523 349.092 452.3 348.61 452.055C347.06 451.282 345.494 450.55 343.902 449.872C343.243 449.591 342.585 449.317 341.92 449.052C340.328 448.419 338.72 447.835 337.092 447.289C336.562 447.116 336.042 446.917 335.513 446.751C335.321 446.691 335.134 446.616 334.943 446.557C333.031 445.973 331.086 445.472 329.122 445.017C328.625 444.899 328.121 444.809 327.618 444.699C325.867 444.324 324.097 443.995 322.305 443.723C321.675 443.625 321.041 443.524 320.402 443.44C318.137 443.137 315.856 442.883 313.536 442.74C292.656 441.426 274.975 446.745 260.538 458.787C254.061 464.187 249.211 470.211 245.978 476.859L167.249 638.608C170.485 631.956 175.335 625.932 181.813 620.532C196.253 608.493 213.93 603.171 234.81 604.485C237.134 604.631 239.415 604.885 241.676 605.185C242.315 605.269 242.942 605.372 243.579 605.468C245.375 605.743 247.145 606.072 248.896 606.447C249.391 606.551 249.892 606.645 250.385 606.761C252.55 607.262 254.678 607.843 256.784 608.5C257.309 608.664 257.825 608.86 258.351 609.03C259.982 609.572 261.598 610.161 263.199 610.8C263.859 611.062 264.513 611.333 265.168 611.612C266.757 612.294 268.33 613.024 269.884 613.8C270.369 614.041 270.859 614.265 271.338 614.514C273.304 615.54 275.234 616.645 277.138 617.824C278.616 618.737 280.049 619.751 281.489 620.763C282.201 621.263 282.935 621.713 283.639 622.234C285.764 623.812 287.85 625.482 289.889 627.263C291.992 629.101 293.965 630.961 295.815 632.854C296.435 633.488 296.967 634.139 297.555 634.777C298.734 636.048 299.931 637.311 301.004 638.607C301.185 638.829 301.331 639.06 301.513 639.282C303.283 641.474 304.872 643.705 306.333 645.966C306.791 646.671 307.221 647.384 307.644 648.098C308.851 650.12 309.938 652.17 310.896 654.244C311.142 654.772 311.428 655.294 311.657 655.83C312.752 658.39 313.655 660.987 314.384 663.622C314.557 664.257 314.676 664.901 314.831 665.536C315.335 667.645 315.726 669.782 316.002 671.937C316.164 673.224 316.375 674.499 316.455 675.802C316.586 677.995 316.57 680.134 316.464 682.238C316.431 682.914 316.342 683.565 316.288 684.228C316.165 685.653 316.007 687.067 315.775 688.45C315.648 689.193 315.493 689.924 315.339 690.654C315.058 691.952 314.731 693.231 314.353 694.488C314.143 695.187 313.937 695.889 313.696 696.58C313.075 698.357 312.4 700.11 311.57 701.81L390.3 540.068C390.955 538.719 391.545 537.352 392.072 535.955C392.208 535.591 392.294 535.205 392.423 534.842C392.663 534.151 392.873 533.445 393.086 532.742C393.464 531.484 393.792 530.213 394.073 528.915C394.227 528.184 394.385 527.449 394.512 526.706C394.744 525.323 394.906 523.911 395.026 522.491C395.083 521.824 395.172 521.173 395.205 520.497C395.311 518.393 395.327 516.254 395.193 514.065C395.141 513.219 395.07 512.374 394.985 511.531C394.937 511.08 394.796 510.65 394.74 510.201C394.471 508.043 394.077 505.912 393.569 503.8C393.417 503.16 393.298 502.516 393.125 501.881C392.396 499.246 391.493 496.649 390.398 494.089C390.169 493.553 389.88 493.035 389.637 492.503C388.679 490.429 387.596 488.382 386.389 486.36C385.962 485.643 385.532 484.93 385.074 484.225C383.617 481.966 382.028 479.736 380.258 477.544C380.112 477.366 380.012 477.18 379.862 476.999C379.827 476.955 379.78 476.91 379.741 476.863C378.676 475.573 377.475 474.307 376.3 473.038C375.708 472.398 375.175 471.739 374.555 471.106C372.702 469.217 370.728 467.349 368.626 465.519C366.583 463.735 364.497 462.066 362.372 460.487C361.668 459.967 360.934 459.516 360.222 459.016C358.779 458.009 357.346 456.995 355.868 456.082Z" fill="#FF6A29"/>
<path d="M351.42 374.825C380.202 382.794 405.781 396.478 428.076 415.952C450.794 435.792 466.485 458.162 475.345 483.07C484.143 507.974 485.868 532.41 480.42 556.281C474.943 580.178 462.148 600.544 442.034 617.312C422.207 633.845 398.316 644.068 370.392 648.016C342.439 651.989 313.912 649.898 284.971 641.788C255.968 633.673 230.185 619.713 207.467 599.872C185.176 580.401 169.684 558.306 161.046 533.543C152.382 508.801 150.727 484.532 156.03 460.777C161.303 437.047 173.839 416.903 193.667 400.37C213.783 383.598 237.934 373.16 266.058 369.042C294.157 364.953 322.613 366.877 351.42 374.825ZM395.185 514.06C394.103 496.239 385.235 480.029 368.619 465.521C352.751 451.662 334.358 444.06 313.541 442.75C292.661 441.436 274.98 446.755 260.547 458.792C246.425 470.566 240.04 485.308 241.237 503.031C242.46 520.68 251.024 536.473 266.889 550.337C283.501 564.849 302.197 572.862 322.877 574.346C343.613 575.783 361.001 570.648 375.123 558.875C389.56 546.834 396.24 531.902 395.185 514.06Z" fill="#FFD600"/>
<path d="M442.031 617.316C422.204 633.849 398.313 644.072 370.385 648.017C342.431 651.99 313.904 649.9 284.964 641.789C282.535 641.107 280.163 640.326 277.782 639.566C275.486 638.83 273.206 638.061 270.954 637.252C269.421 636.699 267.894 636.144 266.381 635.552C264.124 634.681 261.895 633.75 259.679 632.802C258.243 632.185 256.804 631.579 255.385 630.928C253.05 629.859 250.758 628.716 248.472 627.556C247.24 626.928 245.987 626.339 244.766 625.686C241.903 624.158 239.09 622.533 236.303 620.861C235.694 620.497 235.068 620.166 234.463 619.798C234.154 619.606 233.849 619.397 233.54 619.205C231.025 617.641 228.548 616.011 226.1 614.322C225.248 613.739 224.411 613.134 223.568 612.537C221.58 611.125 219.616 609.669 217.669 608.18C216.867 607.566 216.067 606.96 215.268 606.334C212.628 604.247 210.018 602.107 207.456 599.87C203.979 596.83 200.728 593.711 197.582 590.545C196.694 589.656 195.842 588.752 194.986 587.853C192.549 585.303 190.224 582.712 187.999 580.079C187.353 579.317 186.676 578.566 186.047 577.796C183.499 574.66 181.076 571.472 178.817 568.227C178.395 567.625 178.029 567.002 177.62 566.389C175.81 563.7 174.093 560.976 172.481 558.213C171.853 557.13 171.252 556.032 170.652 554.942C169.301 552.476 168.028 549.984 166.831 547.46C166.331 546.405 165.81 545.356 165.338 544.288C163.769 540.757 162.305 537.187 161.028 533.543C160.007 530.622 159.097 527.713 158.271 524.802C158 523.858 157.791 522.918 157.542 521.977C157.025 520.016 156.523 518.052 156.095 516.092C155.854 514.973 155.65 513.861 155.436 512.747C155.09 510.962 154.768 509.179 154.496 507.399C154.318 506.232 154.17 505.065 154.028 503.897C153.832 502.338 153.677 500.781 153.54 499.231C153.371 497.311 153.261 495.4 153.177 493.494C153.123 492.163 153.062 490.834 153.045 489.509C153.023 487.54 153.078 485.579 153.149 483.621C153.194 482.371 153.213 481.117 153.299 479.869C153.442 477.719 153.685 475.579 153.936 473.437C154.064 472.388 154.141 471.336 154.288 470.294C154.749 467.113 155.31 463.943 156.013 460.784C156.53 458.453 157.139 456.171 157.794 453.908C158.005 453.19 158.241 452.489 158.465 451.779C158.952 450.231 159.459 448.689 160.017 447.17C160.272 446.475 160.535 445.786 160.806 445.103C161.837 442.456 162.93 439.84 164.17 437.297L85.4404 599.039C84.2006 601.582 83.1099 604.194 82.0791 606.84C81.9491 607.17 81.7866 607.477 81.6607 607.809C81.5246 608.173 81.4199 608.552 81.2879 608.919C80.7333 610.434 80.2224 611.973 79.7418 613.519C79.5183 614.229 79.2827 614.93 79.0744 615.644C78.415 617.904 77.8104 620.189 77.293 622.52C76.5876 625.683 76.0222 628.851 75.5643 632.027C75.4137 633.074 75.3331 634.123 75.212 635.17C74.9574 637.309 74.7181 639.452 74.5711 641.599C74.4894 642.85 74.4706 644.105 74.4254 645.354C74.3516 647.316 74.303 649.276 74.3215 651.242C74.3351 652.572 74.3924 653.898 74.4537 655.227C74.534 657.138 74.6509 659.047 74.8165 660.964C74.872 661.623 74.8717 662.276 74.9424 662.939C75.0354 663.839 75.1984 664.741 75.3096 665.64C75.4541 666.804 75.6018 667.964 75.7798 669.131C76.0479 670.915 76.3748 672.701 76.721 674.493C76.9356 675.607 77.135 676.717 77.379 677.831C77.8063 679.783 78.3046 681.745 78.8212 683.706C79.0714 684.654 79.2881 685.6 79.5565 686.548C80.3852 689.454 81.2878 692.366 82.3163 695.285C83.586 698.931 85.0535 702.496 86.6224 706.027C87.0947 707.095 87.6157 708.144 88.1195 709.201C89.3165 711.726 90.5867 714.222 91.94 716.684C92.5401 717.774 93.1372 718.869 93.7657 719.952C95.3786 722.722 97.0991 725.448 98.9109 728.145C99.3184 728.751 99.6834 729.367 100.098 729.971C102.354 733.22 104.777 736.408 107.328 739.539C107.515 739.771 107.67 740.014 107.86 740.242C108.302 740.78 108.824 741.288 109.28 741.822C111.505 744.456 113.83 747.047 116.264 749.601C117.124 750.503 117.976 751.4 118.86 752.292C122.007 755.459 125.257 758.578 128.734 761.618C131.296 763.855 133.906 765.994 136.546 768.082C137.338 768.709 138.146 769.314 138.943 769.925C140.887 771.419 142.855 772.87 144.842 774.282C145.685 774.879 146.522 775.484 147.374 776.067C149.825 777.751 152.302 779.381 154.814 780.95C155.124 781.142 155.425 781.355 155.737 781.543C155.805 781.583 155.867 781.632 155.935 781.672C156.472 782 157.032 782.279 157.573 782.603C160.36 784.275 163.174 785.9 166.04 787.431C167.261 788.084 168.511 788.678 169.746 789.301C172.032 790.46 174.324 791.604 176.66 792.673C178.075 793.322 179.517 793.93 180.953 794.547C183.167 795.5 185.398 796.426 187.652 797.302C189.168 797.889 190.699 798.446 192.233 798.999C194.485 799.809 196.764 800.578 199.056 801.311C199.947 801.593 200.801 801.93 201.691 802.205C203.2 802.663 204.715 803.105 206.238 803.534C235.179 811.644 263.709 813.731 291.662 809.758C319.586 805.81 343.477 795.587 363.305 779.054C376.576 767.992 386.661 755.364 393.558 741.194L472.288 579.452C465.387 593.626 455.306 606.25 442.031 617.316Z" fill="#06D7E2"/>
<path d="M746.991 398.368C747.09 398.272 747.204 398.186 747.303 398.09C748.805 396.62 750.228 395.098 751.608 393.542C751.966 393.138 752.302 392.71 752.656 392.302C753.782 390.986 754.872 389.644 755.915 388.264C756.348 387.692 756.773 387.12 757.192 386.54C758.191 385.148 759.148 383.73 760.072 382.283C760.369 381.81 760.687 381.354 760.977 380.881C761.081 380.709 761.2 380.547 761.304 380.375C762.333 378.661 763.29 376.896 764.208 375.101C764.443 374.648 764.653 374.18 764.881 373.719C765.669 372.111 766.418 370.473 767.116 368.801C767.364 368.214 767.615 367.623 767.852 367.023C768.694 364.899 769.493 362.748 770.195 360.532C776.531 340.593 775.656 322.15 767.472 305.225C763.803 297.631 759.134 291.466 753.468 286.718L615.624 171.132C621.293 175.884 625.962 182.05 629.632 189.643C637.811 206.571 638.69 225.011 632.355 244.95C631.649 247.17 630.85 249.32 630.011 251.442C629.774 252.041 629.523 252.625 629.275 253.219C628.573 254.895 627.825 256.532 627.037 258.14C626.816 258.595 626.603 259.059 626.371 259.509C625.36 261.488 624.281 263.411 623.133 265.295C622.847 265.765 622.532 266.218 622.239 266.687C621.318 268.138 620.354 269.563 619.347 270.961C618.933 271.538 618.511 272.107 618.082 272.676C617.035 274.051 615.945 275.401 614.816 276.72C614.465 277.132 614.129 277.553 613.771 277.957C612.299 279.617 610.759 281.221 609.154 282.783C607.909 283.995 606.579 285.14 605.248 286.292C604.59 286.861 603.975 287.464 603.299 288.021C601.253 289.7 599.128 291.319 596.905 292.866C594.613 294.46 592.33 295.924 590.045 297.26C589.28 297.708 588.519 298.066 587.758 298.482C586.239 299.318 584.723 300.173 583.206 300.899C582.946 301.021 582.687 301.107 582.428 301.229C579.872 302.416 577.323 303.417 574.775 304.286C573.979 304.559 573.184 304.804 572.389 305.041C570.134 305.722 567.882 306.279 565.638 306.706C565.066 306.817 564.49 306.968 563.915 307.06C561.166 307.503 558.426 307.749 555.693 307.817C555.036 307.831 554.382 307.791 553.728 307.787C551.56 307.765 549.392 307.627 547.234 307.372C545.946 307.217 544.658 307.113 543.375 306.875C541.215 306.47 539.144 305.936 537.129 305.324C536.481 305.127 535.87 304.883 535.241 304.671C533.888 304.205 532.555 303.71 531.269 303.149C530.579 302.846 529.907 302.519 529.236 302.192C528.045 301.605 526.884 300.978 525.755 300.306C525.128 299.933 524.497 299.563 523.885 299.162C522.311 298.129 520.774 297.049 519.327 295.832L657.164 411.417C658.313 412.379 659.497 413.283 660.724 414.133C661.044 414.353 661.398 414.529 661.719 414.743C662.331 415.144 662.965 415.518 663.596 415.895C664.724 416.567 665.878 417.193 667.069 417.78C667.741 418.107 668.416 418.438 669.106 418.742C670.391 419.302 671.722 419.801 673.071 420.262C673.704 420.479 674.314 420.723 674.962 420.919C676.977 421.532 679.048 422.066 681.205 422.466C682.038 422.62 682.876 422.757 683.713 422.879C684.163 422.941 684.614 422.908 685.064 422.963C687.222 423.225 689.386 423.36 691.558 423.379C692.215 423.387 692.869 423.427 693.527 423.412C696.26 423.345 698.999 423.098 701.748 422.656C702.323 422.563 702.895 422.409 703.471 422.302C705.715 421.875 707.964 421.321 710.218 420.64C711.017 420.399 711.812 420.155 712.608 419.881C715.152 419.015 717.702 418.015 720.257 416.828C720.465 416.73 720.67 416.678 720.882 416.577C720.933 416.553 720.988 416.519 721.043 416.491C722.553 415.771 724.072 414.913 725.587 414.081C726.352 413.661 727.12 413.304 727.886 412.856C730.167 411.516 732.457 410.053 734.742 408.458C736.968 406.908 739.094 405.289 741.14 403.61C741.816 403.053 742.431 402.45 743.089 401.881C744.416 400.725 745.746 399.58 746.991 398.368Z" fill="#FF6A29"/>
<path d="M826.902 413.747C812.195 439.739 792.719 461.239 768.422 478.15C743.667 495.381 718.162 505.182 691.849 507.741C665.555 510.24 641.429 505.991 619.59 494.92C597.733 483.814 581.076 466.464 569.683 442.886C558.449 419.643 554.321 393.986 557.259 365.938C560.18 337.855 569.123 310.685 584.006 284.574C598.909 258.402 618.702 236.772 643.457 219.54C667.75 202.633 692.942 192.959 719.06 190.58C745.164 188.171 769.111 192.448 790.872 203.35C812.616 214.218 829.121 231.263 840.355 254.506C851.752 278.088 856.024 304.049 853.203 332.332C850.36 360.584 841.596 387.725 826.902 413.747ZM681.212 422.46C698.763 425.729 716.64 421.054 734.742 408.451C752.034 396.415 763.868 380.413 770.184 360.534C776.519 340.595 775.644 322.152 767.465 305.231C759.465 288.677 746.71 278.91 729.225 275.775C711.806 272.684 694.408 277.165 677.113 289.196C659.007 301.796 646.702 317.992 640.25 337.696C633.829 357.466 634.596 375.579 642.596 392.134C650.779 409.058 663.646 419.159 681.212 422.46Z" fill="#FFD600"/>
<path d="M569.68 442.882C558.446 419.639 554.318 393.982 557.26 365.931C560.18 337.848 569.123 310.678 584.006 284.566C585.257 282.376 586.589 280.263 587.904 278.138C589.174 276.088 590.473 274.063 591.804 272.074C592.712 270.721 593.62 269.374 594.561 268.049C595.954 266.071 597.397 264.134 598.854 262.214C599.801 260.97 600.737 259.721 601.712 258.502C603.316 256.495 604.981 254.549 606.66 252.612C607.568 251.569 608.443 250.497 609.372 249.47C611.548 247.063 613.807 244.728 616.105 242.429C616.606 241.927 617.078 241.4 617.582 240.901C617.844 240.648 618.119 240.403 618.381 240.15C620.508 238.089 622.69 236.081 624.921 234.115C625.694 233.429 626.484 232.764 627.267 232.091C629.119 230.505 631.007 228.952 632.924 227.424C633.714 226.795 634.496 226.166 635.297 225.542C637.962 223.487 640.67 221.473 643.461 219.53C647.253 216.893 651.068 214.496 654.902 212.21C655.979 211.565 657.063 210.956 658.143 210.344C661.207 208.598 664.284 206.97 667.378 205.45C668.275 205.008 669.167 204.533 670.067 204.11C673.727 202.398 677.406 200.819 681.102 199.414C681.789 199.151 682.482 198.947 683.175 198.699C686.224 197.594 689.282 196.589 692.353 195.695C693.557 195.348 694.767 195.03 695.97 194.712C698.69 194 701.416 193.369 704.156 192.819C705.3 192.59 706.444 192.339 707.595 192.14C711.4 191.473 715.219 190.918 719.064 190.562C722.145 190.279 725.188 190.102 728.212 190.006C729.194 189.972 730.156 189.997 731.13 189.984C733.158 189.958 735.185 189.947 737.19 190.006C738.334 190.043 739.463 190.116 740.596 190.177C742.411 190.275 744.219 190.394 746.011 190.562C747.187 190.673 748.355 190.811 749.523 190.957C751.082 191.144 752.631 191.371 754.168 191.614C756.071 191.915 757.952 192.272 759.822 192.653C761.126 192.923 762.43 193.186 763.72 193.491C765.636 193.946 767.525 194.475 769.407 195.019C770.608 195.365 771.821 195.688 773.011 196.073C775.062 196.733 777.08 197.488 779.097 198.25C780.083 198.629 781.085 198.958 782.061 199.354C785.035 200.572 787.975 201.885 790.869 203.332C793.005 204.399 795.072 205.543 797.109 206.727C797.754 207.106 798.377 207.504 799.011 207.893C800.395 208.742 801.768 209.607 803.107 210.516C803.719 210.932 804.324 211.354 804.921 211.783C807.239 213.424 809.512 215.12 811.678 216.939L673.841 101.354C671.675 99.5348 669.405 97.8435 667.088 96.202C666.8 95.9961 666.541 95.764 666.25 95.5614C665.929 95.3411 665.587 95.1476 665.263 94.9306C663.927 94.0252 662.558 93.1566 661.174 92.3156C660.54 91.9268 659.917 91.5282 659.275 91.1532C657.242 89.9656 655.172 88.8253 653.035 87.7582C650.137 86.3071 647.201 84.9908 644.231 83.7769C643.252 83.377 642.254 83.0445 641.267 82.6731C639.253 81.9077 637.233 81.1562 635.185 80.4932C633.991 80.1107 632.779 79.7884 631.577 79.4416C629.692 78.8944 627.802 78.3724 625.89 77.9137C624.597 77.6047 623.296 77.3388 621.992 77.0761C620.119 76.691 618.238 76.3415 616.338 76.0376C615.686 75.9318 615.052 75.7732 614.392 75.6812C613.496 75.5533 612.581 75.4927 611.682 75.3826C610.518 75.2407 609.357 75.1029 608.181 74.9927C606.385 74.8203 604.574 74.7048 602.751 74.6063C601.618 74.5445 600.493 74.4689 599.353 74.4355C597.355 74.3769 595.332 74.385 593.304 74.4108C592.323 74.4236 591.353 74.4047 590.368 74.4353C587.348 74.5348 584.304 74.7049 581.223 74.9953C577.378 75.3434 573.563 75.9028 569.757 76.5693C568.607 76.7686 567.463 77.0198 566.315 77.2523C563.575 77.8018 560.846 78.429 558.129 79.1453C556.926 79.4633 555.719 79.7772 554.516 80.1244C551.437 81.0178 548.376 82.0262 545.32 83.1303C544.634 83.3789 543.948 83.5837 543.261 83.8396C539.562 85.2407 535.882 86.8192 532.226 88.5354C531.956 88.6601 531.682 88.7516 531.415 88.8803C530.786 89.1789 530.167 89.5625 529.538 89.8757C526.444 91.3958 523.366 93.0236 520.298 94.7657C519.215 95.3813 518.138 95.9904 517.058 96.6319C513.223 98.9173 509.409 101.314 505.617 103.951C502.826 105.895 500.118 107.909 497.452 109.964C496.652 110.58 495.87 111.217 495.084 111.842C493.163 113.366 491.278 114.923 489.426 116.51C488.643 117.183 487.853 117.848 487.081 118.533C484.853 120.503 482.671 122.511 480.54 124.568C480.279 124.822 479.999 125.062 479.741 125.32C479.686 125.376 479.624 125.424 479.569 125.48C479.119 125.922 478.713 126.398 478.268 126.844C475.97 129.143 473.711 131.478 471.532 133.888C470.602 134.915 469.723 135.983 468.819 137.031C467.14 138.968 465.475 140.914 463.872 142.921C462.9 144.136 461.96 145.388 461.013 146.632C459.552 148.548 458.113 150.489 456.717 152.463C455.78 153.792 454.868 155.142 453.96 156.496C452.629 158.485 451.33 160.509 450.063 162.556C449.573 163.352 449.04 164.099 448.557 164.895C447.747 166.248 446.951 167.61 446.166 168.985C431.282 195.096 422.343 222.27 419.423 250.353C416.485 278.401 420.612 304.058 431.846 327.301C439.361 342.858 449.169 355.703 461.244 365.829L599.081 481.414C587.002 471.284 577.198 458.443 569.68 442.882Z" fill="#06D7E2"/>
</svg>
