<svg width="2340" height="1958" viewBox="0 0 2340 1958" fill="none" xmlns="http://www.w3.org/2000/svg">
<path d="M156.927 1712.21L43 1594.48L383.073 1257.21L497 1374.93L156.927 1712.21Z" fill="#FFD600"/>
<path d="M442 1068.51L559.336 954L890 1301.49L772.664 1416L442 1068.51Z" fill="#FFD600"/>
<path d="M831 1702.37C831 1727.37 824.823 1750.31 812.508 1771.17C800.19 1792.03 783.854 1808.7 763.501 1821.23C743.144 1833.74 720.862 1840 696.621 1840C671.953 1840 649.377 1833.73 628.793 1821.23C608.275 1808.7 591.806 1792.03 579.491 1771.17C567.173 1750.31 561 1727.37 561 1702.37C561 1677.76 567.177 1655.12 579.491 1634.5C591.81 1613.84 608.275 1597.26 628.793 1584.77C649.377 1572.23 671.953 1566 696.621 1566C720.866 1566 743.148 1572.23 763.501 1584.77C783.858 1597.27 800.194 1613.84 812.508 1634.5C824.823 1655.12 831 1677.77 831 1702.37ZM758.269 1702.37C758.269 1684.83 752.288 1670.04 740.365 1657.94C728.474 1645.87 713.866 1639.8 696.617 1639.8C678.549 1639.8 663.554 1645.87 651.627 1657.94C639.7 1670.04 633.723 1684.83 633.723 1702.37C633.723 1720.31 639.704 1735.42 651.627 1747.73C663.554 1760.03 678.549 1766.16 696.617 1766.16C713.87 1766.16 728.474 1760.03 740.365 1747.73C752.292 1735.43 758.269 1720.31 758.269 1702.37Z" fill="#FFD600"/>
<path d="M2295.33 436.838L2220.94 582.328L1717.61 290.271L1792 144.78L2295.33 436.838Z" fill="#FFD600"/>
<path d="M874 940.055L793.692 994L348 313.945L428.308 260L874 940.055Z" fill="#FFD600"/>
<path d="M2141 1552.37C2141 1577.37 2134.82 1600.31 2122.51 1621.17C2110.19 1642.03 2093.85 1658.7 2073.5 1671.23C2053.14 1683.74 2030.86 1690 2006.62 1690C1981.95 1690 1959.38 1683.73 1938.79 1671.23C1918.28 1658.7 1901.81 1642.03 1889.49 1621.17C1877.17 1600.31 1871 1577.37 1871 1552.37C1871 1527.76 1877.18 1505.12 1889.49 1484.5C1901.81 1463.84 1918.28 1447.26 1938.79 1434.77C1959.38 1422.23 1981.95 1416 2006.62 1416C2030.87 1416 2053.15 1422.23 2073.5 1434.77C2093.86 1447.27 2110.19 1463.84 2122.51 1484.5C2134.82 1505.12 2141 1527.77 2141 1552.37ZM2068.27 1552.37C2068.27 1534.83 2062.29 1520.04 2050.37 1507.94C2038.47 1495.87 2023.87 1489.8 2006.62 1489.8C1988.55 1489.8 1973.55 1495.87 1961.63 1507.94C1949.7 1520.04 1943.72 1534.83 1943.72 1552.37C1943.72 1570.31 1949.7 1585.42 1961.63 1597.73C1973.55 1610.03 1988.55 1616.16 2006.62 1616.16C2023.87 1616.16 2038.47 1610.03 2050.37 1597.73C2062.29 1585.42 2068.27 1570.31 2068.27 1552.37Z" fill="#FFD600"/>
<path d="M-5.93906e-06 818.13C-7.02793e-06 793.22 6.17695 770.362 18.4915 749.581C30.8061 728.8 47.1459 712.184 67.4991 699.697C87.8562 687.241 110.138 681 134.379 681C159.047 681 181.623 687.245 202.207 699.697C222.725 712.184 239.194 728.8 251.509 749.581C263.823 770.362 270 793.22 270 818.13C270 842.644 263.823 865.205 251.509 885.752C239.19 906.335 222.725 922.852 202.207 935.303C181.623 947.79 159.047 954 134.379 954C110.134 954 87.8522 947.79 67.4991 935.303C47.142 922.848 30.8061 906.331 18.4915 885.752C6.17696 865.205 -4.86769e-06 842.64 -5.93906e-06 818.13ZM72.7314 818.13C72.7314 835.606 78.7123 850.34 90.6349 862.399C102.526 874.422 117.134 880.469 134.383 880.469C152.451 880.469 167.446 874.422 179.373 862.399C191.3 850.34 197.277 835.606 197.277 818.13C197.277 800.258 191.296 785.195 179.373 772.938C167.446 760.681 152.451 754.57 134.383 754.57C117.13 754.57 102.526 760.681 90.6349 772.938C78.7083 785.195 72.7314 800.258 72.7314 818.13Z" fill="#FFD600"/>
<path d="M1333.01 1060L1435.94 1187.78L1184.94 1382.58L1082 1254.8L1333.01 1060Z" fill="#FFD600"/>
<path d="M1259 441.467C1259 403.235 1268.47 368.153 1287.35 336.258C1306.24 304.363 1331.29 278.86 1362.5 259.696C1393.71 240.579 1427.88 231 1465.05 231C1502.87 231 1537.49 240.585 1569.05 259.696C1600.51 278.86 1625.76 304.363 1644.65 336.258C1663.53 368.153 1673 403.234 1673 441.467C1673 479.091 1663.53 513.717 1644.65 545.253C1625.76 576.844 1600.51 602.194 1569.05 621.304C1537.49 640.469 1502.87 650 1465.05 650C1427.87 650 1393.71 640.469 1362.5 621.304C1331.28 602.188 1306.24 576.838 1287.35 545.253C1268.47 513.717 1259 479.085 1259 441.467ZM1370.52 441.467C1370.52 468.289 1379.69 490.903 1397.97 509.411C1416.2 527.864 1438.6 537.146 1465.05 537.146C1492.75 537.146 1515.75 527.864 1534.03 509.411C1552.32 490.903 1561.48 468.289 1561.48 441.467C1561.48 414.036 1552.31 390.918 1534.03 372.106C1515.75 353.294 1492.75 343.915 1465.05 343.915C1438.59 343.915 1416.2 353.294 1397.97 372.106C1379.69 390.912 1370.52 414.036 1370.52 441.467Z" fill="#FFD600"/>
<path d="M1124 817.13C1124 792.22 1130.18 769.362 1142.49 748.581C1154.81 727.8 1171.15 711.184 1191.5 698.697C1211.86 686.242 1234.14 680 1258.38 680C1283.05 680 1305.62 686.245 1326.21 698.697C1346.72 711.184 1363.19 727.8 1375.51 748.581C1387.83 769.362 1394 792.22 1394 817.13C1394 841.644 1387.82 864.205 1375.51 884.752C1363.19 905.335 1346.72 921.852 1326.21 934.303C1305.62 946.79 1283.05 953 1258.38 953C1234.13 953 1211.85 946.79 1191.5 934.303C1171.14 921.848 1154.81 905.331 1142.49 884.752C1130.17 864.205 1124 841.64 1124 817.13ZM1196.73 817.13C1196.73 834.606 1202.71 849.34 1214.63 861.399C1226.52 873.422 1241.13 879.47 1258.38 879.47C1276.45 879.47 1291.44 873.422 1303.37 861.399C1315.3 849.34 1321.27 834.606 1321.27 817.13C1321.27 799.258 1315.29 784.195 1303.37 771.938C1291.44 759.681 1276.45 753.57 1258.38 753.57C1241.13 753.57 1226.52 759.681 1214.63 771.938C1202.71 784.195 1196.73 799.258 1196.73 817.13Z" fill="#FFD600"/>
<path d="M1697 1958L1697 1291L1124 1624.5L1697 1958Z" fill="#FFD600"/>
<path d="M2035 1181L2035 760L1673 970.5L2035 1181Z" fill="#FFD600"/>
<path d="M1091 651.208L1091 230.208L729 440.708L1091 651.208Z" fill="#FFD600"/>
</svg>
