<svg xmlns="http://www.w3.org/2000/svg" width="478.888mm" height="181.558mm" viewBox="0 0 1357.477 514.654">
  <g>
    <path d="M363.158,153.777c16.063-19.863,33.2-38.74,47.318-62.085-48.137,2.87-94.361,6.96-140.794,15.877,7.712-7.166,32.422-17.391,71.374-29.542A618.632,618.632,0,0,1,417.6,59.374C386.2,34.525,352.219,18.529,319.637,0c16.087.356,31.76,2.894,47.3,6.24C405.131,14.465,442.469,25.3,477.062,44c3.949,2.136,7.586,1.786,11.542.986,15.009-3.038,30.272-3.422,46.424-4.935-2.628,7.87-6.216,14.133-11.43,19.31A69.954,69.954,0,0,1,511.383,69.6c-5.221,3.208-6.674,6.973-6.3,13.051,1.515,24.783-2.623,49.151-6.825,73.431-3.291,19.013-7.048,37.963-13.373,56.278-.852,2.467-1.171,5.192-3.61,7.3-2.981-3.138-1.765-6.965-1.84-10.4-.571-26.009-2.435-51.865-8.2-77.326a122.567,122.567,0,0,0-6.8-20.862c-3.342-7.861-4.155-8.124-11.519-3.923C423.693,123.816,392.524,136.76,363.158,153.777Z"/>
    <path d="M157.9,288.638c-9.536-22.384-15.539-45.2-23.424-67.973-8.27,3.018-14.514,8.456-20.984,13.4C93.1,249.635,73.978,266.709,55,283.952c-2.182,1.984-4.48,3.84-7.109,6.083C49.28,276.19,75.56,236.492,112.8,191.6c-18.239-14.265-40.241-15.51-61.637-18.674.343-3.351,3.1-3.113,5.158-3.652a269.309,269.309,0,0,1,85.065-8.379,25.7,25.7,0,0,0,17.5-4.852,198.488,198.488,0,0,1,49.626-25.314c1.853-.629,3.667-1.672,6.484-.466-5.477,11.086-12.913,21.272-16.1,34.457,38.432,6.681,74.4,19.4,108.086,39.048-2.142,2.555-4.164,1.4-5.837,1.089-19.343-3.581-38.85-5.259-58.5-6.155-16.679-.761-33.141.651-49.656,2.453-7.474.816-11.674,4.037-14.252,11.455a453.9,453.9,0,0,0-17.923,69.464C160.482,283.982,160.736,286.1,157.9,288.638Z"/>
    <path d="M115.059,390.174c-4.89,8.838-10.92,17.2-14.956,26.612-7.223,16.841-8.886,13.774,5.965,25.9,13.255,10.823,28.249,18.6,44.006,25.64-6.6,1.762-13.105.613-19.635-.4-7.229-1.115-14.524-1.849-21.7-3.212-6.8-1.291-13.478-3.181-20.7-4.927-3.04,13.639-.359,26.238,2.2,39.451-3.34.045-4.794-2.369-6.405-4.044a155.9,155.9,0,0,1-29.459-42.448A20.231,20.231,0,0,0,43.4,442.094c-13.716-6.079-26.457-13.946-39.224-21.752-1.662-1.017-3.6-1.805-4.177-4.283,9.965-5.356,20.8-8.632,31.649-11.677,4.563-1.28,5.746-3.342,5.062-7.746-3.917-25.213-2-50.381.786-75.969,3.265,1.282,2.972,4.066,3.49,6.407,4.535,20.5,10.211,40.615,19.522,59.56,4.762,9.69,4.61,9.563,14.916,7.746,10.8-1.9,21.662-3.485,32.525-5.012C110.054,389.073,112.41,387.824,115.059,390.174Z"/>
    <path d="M1116.911,330.327c4.457,2.21,9.1,4.017,13.222,6.647,14.231,9.084,13.691,24.2-1.057,32.472-9.837,5.52-20.838,7.063-31.748,7.482-16.949.652-33.942.054-50.913.256-4.674.055-6.28-1.069-6-6.187,1.34-24.27.868-48.564.234-72.855-.181-6.942.076-7.134,7.094-7.155q26.458-.078,52.916.167a53.428,53.428,0,0,1,21.357,4.364c6.3,2.788,11.781,6.521,12.514,14.151.751,7.824-4.5,11.971-10.155,15.853C1121.964,327.178,1118.549,327.275,1116.911,330.327Zm-39.573,6.343c1.061-9.122,5.761-13.074,13.838-13.358a38.812,38.812,0,0,0,4.974-.306c5.935-.989,9.9-4.539,10.389-9.154.536-5.03-2.035-8.342-8.409-10.7-8.045-2.98-16.425-1.873-24.7-1.937-2.916-.023-4.046,1.713-4.19,4.42-.988,18.621-.861,37.246-.212,55.873.092,2.658,1.166,4.6,3.979,4.757,11,.611,22.081.878,32.233-4.152,8.09-4.008,8.573-13.136,1.408-18.7-2.922-2.269-6.384-3.421-9.887-4.584C1090.622,336.791,1084.238,337.5,1077.338,336.67Z"/>
    <path d="M331.581,330.4c4.464,2.272,9.129,4.108,13.21,6.824,13.551,9.019,13,23.955-1.039,32.006-10.107,5.8-21.432,7.28-32.684,7.714-16.284.628-32.609.231-48.916.131-7.377-.045-7.687-.387-7.437-7.02q1.359-35.922,0-71.84c-.254-6.914-.058-7.2,7.184-7.225q26.457-.092,52.914.159c8.4.075,16.582,1.606,24.07,5.578,12.895,6.842,13.474,19.18,1.606,27.577C337.574,326.369,333.492,326.77,331.581,330.4Zm-39.414,6.052c2.273-11,2.867-11.631,12.708-13.019,1.966-.277,4-.1,5.95-.462,5.73-1.06,9.923-4.99,10.275-9.407.38-4.772-2.465-8.149-8.87-10.476-8.051-2.924-16.418-1.792-24.687-1.879-2.876-.03-4.107,1.561-4.228,4.345-.809,18.609-1.019,37.214-.095,55.829.167,3.369,1.708,4.875,4.787,4.993,9.979.382,19.918.255,29.482-3.212a13.351,13.351,0,0,0,1.8-.843c8.669-4.728,9.4-13.211,1.436-19.1-5.507-4.073-12.074-5.342-18.749-6.043C298.718,336.838,295.365,337.663,292.167,336.452Z"/>
    <path d="M446.416,338.985c.988-11.8-1.842-23.578-1.345-35.434.069-1.656-.226-3.324-.271-4.989-.195-7.319-.186-7.5,6.764-7.554,5.919-.046,11.906-.638,18.064.574-.734,27.335-1.858,54.22.4,81.064.263,3.124-.816,4.361-3.691,4.4-4.331.053-8.67-.112-12.993.083-4.065.183-5.711-2.831-7.833-5.33q-19.718-23.214-39.46-46.406c-1.857-2.181-3.827-4.265-5.988-6.664-2.207,3.462-1.445,6.49-1.411,9.323.17,14.324.317,28.654.9,42.965.171,4.183-.441,6.335-5.1,6.132-4.99-.218-10-.129-14.993-.056-3.4.05-4.793-1.427-4.541-4.842.269-3.651.184-7.325.372-10.983,1.1-21.317.347-42.632-.286-63.936-.144-4.821,1.153-6.253,5.962-6.482,22.039-1.05,22.068-1.224,36.3,15.626,8.372,9.917,16.6,19.957,24.916,29.921C443.165,337.576,443.686,339.5,446.416,338.985Z"/>
    <path d="M865.7,292.139c1.547-.5,2.476-1.059,3.4-1.055,19.63.091,39.273-.773,58.884.662a57.487,57.487,0,0,1,21.962,6.053c7.379,3.734,12.3,9.545,12.446,17.893.148,8.379-4.688,14.366-11.912,18.254-3.431,1.847-7.132,3.19-11.665,5.18l31,36.938c-10.874,1.877-20.368.784-29.8.9-1.894.023-2.9-1.381-3.9-2.732-10.218-13.865-20.439-27.728-31.162-42.274,4.7-.728,8.762-1.443,12.848-1.963a21.643,21.643,0,0,0,9.3-3.342c4.133-2.708,6.976-6.216,6.607-11.461-.374-5.307-3.706-8.194-8.37-10.12-8.559-3.535-17.493-3.543-26.494-3.217-3.011.109-3.967,2-4.02,4.62-.107,5.323-.269,10.649-.207,15.971.182,15.638-.459,31.28.5,46.918.459,7.454.115,7.6-7.718,7.726-5.657.089-11.317-.057-16.975.009-3.887.045-4.982-1.468-4.644-5.5,2.008-23.911.917-47.873.694-71.819C866.459,297.468,866.022,295.159,865.7,292.139Z"/>
    <path d="M1260.436,377.091c-7.631,0-15.547-.114-23.457.051-3.623.076-5.8-1.585-6.588-4.816-3.475-14.231-13.181-17.159-26.222-15.358-5.888.813-11.984.29-17.977.1-3.8-.12-6.055,1.151-7.692,4.8-2.269,5.053-2.661,12.572-7.8,14.383-6.992,2.464-15.026.978-22.506.576-1.395-3.409.908-5.408,2.122-7.6,13.417-24.159,27-48.227,40.319-72.44,2.127-3.865,4.293-5.934,9.083-6.038,14.841-.322,14.77-.519,22.145,12.791,12.1,21.844,24.33,43.622,36.427,65.471C1259.512,371.224,1261.821,373.2,1260.436,377.091Zm-58.692-59.567c-5.605,9.214-10.452,17.321-14.034,27.066a190.163,190.163,0,0,0,27.835.156C1212.116,334.74,1207.4,326.869,1201.744,317.524Z"/>
    <path d="M852.8,377.061c-8.317,0-16.539-.061-24.759.028-3.857.041-5.465-2.719-6.16-5.523-3.322-13.408-12.341-16.232-24.688-14.6-6.221.823-12.643.281-18.967.1-3.762-.107-6.8.786-7.522,4.811-2.7,15.105-13.02,17.091-25.709,15.242-1.607-.234-3.25-.217-4.8-.312-1.42-3.279.828-5.336,2.068-7.49C756.206,345.1,770.145,320.865,783,296.038c1.993-3.849,4.433-5.014,8.578-5.129,15.118-.416,15.007-.508,22.215,12.576,12.2,22.154,24.566,44.22,36.831,66.34C851.7,371.781,853.4,373.593,852.8,377.061Zm-44.532-32.476c-5.141-9.715-8.523-18.419-15.1-26.834-4.76,9.45-10.325,17.185-13.322,26.944A196.521,196.521,0,0,0,808.267,344.585Z"/>
    <path d="M650.911,333.115c0-11.969.279-23.947-.133-35.9-.172-4.985,1.528-6.4,6.158-6.305,18.613.392,37.248-.684,55.848.809a54.848,54.848,0,0,1,22.8,6.559c15.081,8.463,15.335,26.322.467,35.282-8.467,5.1-18.058,6.628-27.645,7.535a208.762,208.762,0,0,1-22.918.608c-4.759-.075-6.546,1.63-6.277,6.406.43,7.619-.477,15.3,1.135,22.873.883,4.148-.727,6.257-5.218,6.147-6.317-.154-12.643-.174-18.958.006-4.508.128-5.471-1.98-5.391-6.119.244-12.628.089-25.264.089-37.9Zm28.25-19c0,4.874-.037,8.18.014,11.484.033,2.11.622,4.169,3.084,4.3,10.567.576,21.354,1.422,30.719-4.763,8.383-5.537,7.366-15.155-1.895-19.543a40.233,40.233,0,0,0-17.251-3.836C675.894,301.714,680.019,300.889,679.161,314.111Z"/>
    <path d="M497.719,290.8c24.084.993,47.336-1.741,70.48,2.239a43.831,43.831,0,0,1,15.806,5.917c13.531,8.377,13.97,24.889.745,33.718-8.844,5.9-19.146,7.5-29.433,8.449a174.127,174.127,0,0,1-21.958.547c-5.37-.184-7.074,1.96-6.8,7,.393,7.314.285,14.655.673,21.969.243,4.589-1.18,6.785-6.159,6.525-5.982-.312-11.994-.158-17.99-.047-4.143.076-5.885-1.183-5.459-5.861C500.007,345.025,499.123,318.755,497.719,290.8ZM540.33,330c4.717-.15,11.129-.01,16.9-3.066,4.519-2.393,8.431-5.345,8.2-11.343-.228-5.893-3.811-8.977-8.826-10.761-4.682-1.665-9.453-3.06-14.52-3.061-18.868-.006-15.03-1.457-15.479,15.078-.036,1.328-.015,2.658,0,3.987.091,9.637.472,10,10.164,9.516C537.429,330.313,538.089,330.218,540.33,330Z"/>
    <path d="M1271.011,355.146c9.321,2.55,16.964,5.823,25.129,7.327a93.034,93.034,0,0,0,23.828,1.254,19.32,19.32,0,0,0,4.886-.878c2.886-1,5.552-2.439,6.162-5.865.616-3.45-1.331-5.717-3.861-7.522a50.768,50.768,0,0,0-13.443-6.445c-7.245-2.449-14.566-4.709-21.682-7.494a67.238,67.238,0,0,1-13.31-6.729c-12.454-8.469-12.643-22.281-.647-31.546,8.818-6.809,19.362-8.446,30-9.467,11.011-1.057,21.879.9,32.784,2.046,5.373.566,7.538,3.306,7,8.615-.361,3.566.533,7.284-1.321,11.232-6.569-1.716-12.932-3.41-19.312-5.037a65.533,65.533,0,0,0-23.756-1.323c-3.5.394-6.9,1.69-7.749,5.26-.9,3.76,2.084,6.147,5.039,7.81a81.071,81.071,0,0,0,16.612,6.664c9.847,2.963,19.75,5.969,28.559,11.416,15.538,9.606,15.328,26.345-.214,36.008a44.835,44.835,0,0,1-11.954,4.886c-19.438,5.363-38.837,3.387-58.225-.386-3.058-.595-4.62-2.225-4.548-5.457C1271.084,365.21,1271.011,360.9,1271.011,355.146Z"/>
    <path d="M195.854,514.654c9.873-9.2,21.735-15.95,31.143-26.481-11.313-4.2-22.955-5.662-34.056-13.694,10.974-1.311,20.159-1.537,29.234-2.445,17.761-1.776,32.6-7.486,42.357-23.709,4.357-7.242,10.6-13.353,16.781-20.961,2.928,8.767.221,17.142,3.941,24.7,16.014-6.5,29.878-15.636,45.154-25.233-.537,3.51-2.313,4.828-3.7,6.214-10.135,10.125-20.217,20.421-31.905,28.691-7.207,5.1-9.4,10.476-5.839,18.381.4.894.359,1.986.741,2.895,1.543,3.67.573,5.751-3.574,6.029a30.358,30.358,0,0,1-4.97.434c-12.783-1.305-23.959,3.065-35.174,8.664C230.217,506.007,213.279,510.844,195.854,514.654Z"/>
    <path d="M1013.14,333.911c0,12.272-.164,24.549.084,36.817.095,4.67-1.328,6.676-6.194,6.439-5.961-.289-11.949-.153-17.923-.042-4.089.076-5.919-1.116-5.512-5.8a472.772,472.772,0,0,0,.121-74.544c-.326-4.586,1.065-5.984,5.265-5.91,5.974.1,11.955-.117,17.925.06,6.31.189,6.231.322,6.2,7.142-.059,11.942-.017,23.885-.017,35.828Z"/>
  </g>
  <g>
    <path d="M-59.495-110.669c7.906-3.574,13.434-8.893,19.064-13.951a608.194,608.194,0,0,0,74.354-79.4c4.434-5.712,4.462-5.69,11.066-5.228-.83,4.141-3.767,7.008-6.166,10.118A585.045,585.045,0,0,1-33.6-120.676c-9.938,8.92-21.067,16.255-31.692,24.255a27.56,27.56,0,0,0-9.269,11.4C-80.077-72.155-85.287-59.189-88.31-45.477a68.341,68.341,0,0,0-1.567,11.842c-.151,3.654.1,7.626,4.038,9.513,3.848,1.844,7.021-.143,10.024-2.509,4.234-3.336,7.589-7.477,10.89-11.66,9.307-11.793,16.812-24.8,25-37.349,14.446-22.151,30.656-42.752,51.685-59.132a101.59,101.59,0,0,1,9.817-6.857c13.584-8.21,22.826-7.2,34.262,3.881,8.882-11.325,21.162-4.274,31.759-6.5,1.591,3.755-.78,5.74-2.011,7.891C68.229-106.019,50.726-75.764,33.41-45.4a123.6,123.6,0,0,0-6.64,14.494,4.165,4.165,0,0,0,1.563,5.3c1.589,1.053,3.188.566,4.71-.207a50.824,50.824,0,0,0,11.238-8.238C55.178-44.062,63.539-56.1,71.66-68.308c2.521-3.793,4.9-7.318,10.352-5.124,1.249,2.681-1.028,4.3-2.17,6.051C67.448-48.365,54.048-30.16,37.342-14.589A90.623,90.623,0,0,1,15.983.025C3.776,6.158-7.551,3.293-8.063-13.289c-.05-1.631.2-3.341-1.475-5.13-3.232.632-5.062,3.629-7.482,5.648C-23.941-7-30.811-1.173-39.569,1.708c-11.89,3.91-21.445-2.166-23.065-14.587-.5-3.812.526-7.827-1.1-11.74-4.127.76-5.663,3.986-7.823,6.324-5.908,6.392-12.18,12.385-19.7,16.8-16.641,9.777-30.825,2.03-31.816-17.23-.432-8.42,1.074-16.6,3.413-24.62,2.329-7.989,4.907-15.9,7.392-23.848.973-3.109,2.525-6.121,1.663-9.913-9.823-1.3-16.635.966-21.882,10.642a190.163,190.163,0,0,1-36.038,47.647C-175.579-12.118-183.155-6.106-191.8-1.7c-8.129,4.145-16.843,7.683-25.552,1.934-8.95-5.907-9.634-15.471-9.005-25.021.73-11.078,3.926-21.653,8.264-31.784a196.814,196.814,0,0,1,54.037-73.317,95.735,95.735,0,0,1,21.872-13.875A34.608,34.608,0,0,1-127.665-147c11.1-.071,17.086,5.675,18.142,16.868,1.072,11.353-2.435,21.687-6.484,31.965-1.55,3.937-4.289,7.53-3.923,12.1,11.216,1.432,14.329-.413,19.566-10.548,20.666-40,42.932-78.991,71.181-114.278,18.592-23.223,39.039-44.6,62.083-63.442,7.75-6.335,15.941-12.116,25.311-15.849,6.549-2.608,13.867-5.388,19.833-.056,5.638,5.04,3.483,12.42,2.157,18.907a44.738,44.738,0,0,1-5.575,13.845c-1.847,3.1-4.123,5.188-8.727,3.678.272-3.956,2.61-7.184,4.106-10.68,2.35-5.489,6.647-12.691,1.668-16.58-5.313-4.151-10.855,2.632-15.184,6.245a282.884,282.884,0,0,0-41.846,42.793A729.927,729.927,0,0,0-55.974-122.046C-57.619-118.922-60.241-116.058-59.495-110.669ZM43.633-132.853c-5.04.832-9.055,4.374-13.046,7.905C9.283-106.1-5.818-82.66-18.891-57.756c-2.939,5.6-5.624,11.4-6.664,17.7-.782,4.736-3.579,10.576,1.952,13.678,5.675,3.182,10-1.55,13.94-5.064C-3.13-37.27,1.439-44.71,6.29-51.87c15.147-22.357,26.982-46.708,41.581-69.4a15.535,15.535,0,0,0,2.073-4.512C51-130.021,48.459-133.027,43.633-132.853ZM-191.556-39.578c-.106,4.69-.506,9.568,4.253,12.5,5,3.078,9.606.991,14.039-1.567a30.159,30.159,0,0,0,4.04-2.913c13.861-11.437,23.357-26.245,32.059-41.653,1.773-3.139,1.145-5.554-2.236-7.36a56.631,56.631,0,0,1-17.376-14.735c-4.188-5.179-4.786-5.163-8.732.354-9.51,13.3-17.779,27.324-23.39,42.753C-190.367-48.162-191.741-44.006-191.556-39.578Zm73.891-80.524c-.036-7.874-1.67-12.275-5.028-13.863-4.665-2.206-9.018-.752-13.134,1.763a36.005,36.005,0,0,0-8.973,7.747,23.024,23.024,0,0,0,10.018,36.664c2.464.9,4.527,1.127,5.954-1.44C-123.175-99.395-118.467-109.892-117.665-120.1Z"/>
    <path d="M.248-253.938c-5.594,5.975-11.483,12.224-17.321,18.521-2.455,2.647-4.817,2.413-7.956.847-8.383-4.184-15.89-9.716-23.725-14.737-14.569-9.334-28.735-19.367-45.174-25.361-7.861-2.867-15.828-5.082-24.35-4.556-4.749.293-7.2,2.159-7.273,7.349-.464,31.472-15.318,56.632-35.534,79.23a56.089,56.089,0,0,1-24.632,16.515c-12.751,4.116-21.055-1.582-21.746-14.908-.335-6.455,1.216-12.489,3.636-18.447,11.134-27.4,29.782-48.616,53.635-65.6,2.167-1.542,4.344-3.072,6.458-4.685a10.1,10.1,0,0,0,1.438-2.176c-6.776-4.109-13.344-1.943-19.514.707-12.3,5.284-23.437,12.627-33.967,20.849-19.8,15.462-36.572,33.922-52.428,53.286-24.167,29.512-44.768,61.251-60.312,96.16a181.871,181.871,0,0,0-14.646,55.776,38.784,38.784,0,0,0,3.89,21.379c6.189,12.487,18.448,17.435,31.957,12.9,9.665-3.247,17.8-9.152,25.023-16.093,18.266-17.556,32.394-37.914,40.5-62.147,2.443-7.305,4.355-14.759,3.948-22.494-.58-10.993-7.778-14.814-17.05-8.778a49.365,49.365,0,0,0-20.75,27.391c-3.881,13.482-11.052,22.5-23.257,28.78-7.034,3.616-12.265,10.028-19.3,16.358.019-11.786,3.206-21.353,6.522-30.84,6.883-19.691,18.268-36.184,35.46-48.3,7.726-5.446,16.219-9.2,25.814-9.837,9.983-.661,15.6,3.158,18.917,12.653a38.434,38.434,0,0,1,1.12,21.686C-221.143-66.44-247.1-31.086-286.915-5.93-298.448,1.357-311.5,4.855-325.151,2.35c-20.63-3.786-30.823-18.258-35.508-37.413-4.859-19.867-.9-39.021,5.527-57.839,12.629-36.969,32.615-69.9,56.3-100.649,22.879-29.71,48.81-56.361,80.278-77.224a178.257,178.257,0,0,1,48.6-22.907c11.9-3.472,24.392-4.821,35.422,3.422,3.781,2.826,7.222,2.354,11.176.7,11.54-4.83,23.594-6.492,36.1-6.125,11.965.352,23,3.908,33.436,9.134,17.267,8.644,34.039,18.232,50.429,28.464C-2.016-257.229-.481-256.5.248-253.938ZM-133.728-266.99c.012-1.575.455-3.824-1.289-5.171-2.432-1.879-4.242.663-6.271,1.425a13.4,13.4,0,0,0-2.543,1.553c-23.268,15.469-40.4,36.177-52.2,61.383a34.12,34.12,0,0,0-3.673,13.343c-.3,9.313,5.62,13.471,14.253,9.828a38.751,38.751,0,0,0,6.831-4.061,99.386,99.386,0,0,0,22.6-22.277C-143.59-227.48-135.711-245.869-133.728-266.99Z"/>
  </g>
</svg>
