<svg xmlns="http://www.w3.org/2000/svg" width="330.566mm" height="106.748mm" viewBox="0 0 937.039 302.593">
  <g>
    <path d="M735.264,185.776c7.9-3.574,13.434-8.893,19.064-13.951a608.194,608.194,0,0,0,74.354-79.4c4.434-5.712,4.462-5.69,11.065-5.228-.829,4.141-3.767,7.008-6.166,10.118a585.038,585.038,0,0,1-72.425,78.459c-9.938,8.92-21.068,16.255-31.692,24.255a27.559,27.559,0,0,0-9.269,11.4c-5.513,12.865-10.723,25.831-13.746,39.543a68.341,68.341,0,0,0-1.567,11.842c-.151,3.654.1,7.626,4.038,9.513,3.848,1.844,7.02-.142,10.024-2.509,4.233-3.336,7.589-7.477,10.89-11.66,9.307-11.793,16.812-24.8,25-37.348,14.447-22.152,30.657-42.753,51.686-59.133a101.59,101.59,0,0,1,9.817-6.857c13.584-8.21,22.825-7.2,34.262,3.881,8.882-11.325,21.162-4.274,31.758-6.5,1.592,3.755-.78,5.74-2.01,7.891-17.354,30.34-34.857,60.6-52.174,90.957a123.829,123.829,0,0,0-6.639,14.494,4.165,4.165,0,0,0,1.563,5.3c1.589,1.053,3.188.566,4.71-.207a50.824,50.824,0,0,0,11.238-8.238c10.9-10.011,19.258-22.045,27.378-34.257,2.522-3.793,4.9-7.318,10.352-5.124,1.25,2.681-1.027,4.3-2.169,6.051-12.394,19.016-25.794,37.221-42.5,52.792a90.623,90.623,0,0,1-21.359,14.614c-12.207,6.133-23.534,3.268-24.046-13.314-.05-1.631.2-3.34-1.475-5.13-3.233.632-5.062,3.629-7.483,5.648-6.92,5.771-13.79,11.6-22.549,14.479-11.889,3.91-21.444-2.166-23.065-14.587-.5-3.812.526-7.827-1.1-11.74-4.127.76-5.663,3.986-7.823,6.324-5.908,6.392-12.181,12.385-19.7,16.8-16.64,9.777-30.824,2.03-31.815-17.23-.433-8.42,1.074-16.6,3.413-24.62,2.329-7.989,4.907-15.9,7.392-23.848.973-3.109,2.525-6.121,1.662-9.913-9.822-1.3-16.635.966-21.881,10.642a190.169,190.169,0,0,1-36.038,47.647c-7.05,6.695-14.626,12.707-23.269,17.114-8.128,4.145-16.842,7.683-25.551,1.934-8.95-5.907-9.634-15.471-9-25.021.729-11.078,3.926-21.653,8.264-31.784a196.8,196.8,0,0,1,54.037-73.317,95.735,95.735,0,0,1,21.872-13.875,34.608,34.608,0,0,1,14.516-3.235c11.1-.071,17.085,5.675,18.142,16.868,1.071,11.353-2.435,21.687-6.484,31.965-1.551,3.937-4.289,7.53-3.923,12.1,11.216,1.432,14.329-.413,19.566-10.548,20.666-40,42.931-78.991,71.181-114.278,18.591-23.223,39.039-44.6,62.083-63.442,7.75-6.335,15.941-12.116,25.311-15.849,6.549-2.608,13.867-5.388,19.832-.056,5.639,5.04,3.484,12.42,2.158,18.907a44.716,44.716,0,0,1-5.576,13.845c-1.847,3.1-4.122,5.188-8.726,3.678.272-3.956,2.609-7.184,4.106-10.68,2.35-5.489,6.647-12.691,1.668-16.58-5.313-4.151-10.855,2.632-15.184,6.245A282.884,282.884,0,0,0,809.4,64.413,729.927,729.927,0,0,0,738.785,174.4C737.14,177.524,734.517,180.387,735.264,185.776Zm103.128-22.184c-5.04.832-9.056,4.374-13.047,7.905-21.3,18.85-36.4,42.288-49.477,67.192-2.939,5.6-5.624,11.4-6.665,17.7-.781,4.736-3.578,10.576,1.953,13.678,5.674,3.182,10-1.55,13.94-5.064,6.532-5.827,11.1-13.267,15.952-20.427,15.148-22.357,26.983-46.708,41.582-69.4a15.561,15.561,0,0,0,2.073-4.512C845.762,166.424,843.218,163.418,838.392,163.592ZM603.2,256.867c-.106,4.69-.506,9.568,4.252,12.5,5,3.078,9.607.991,14.04-1.567a30.15,30.15,0,0,0,4.039-2.913c13.861-11.437,23.358-26.245,32.06-41.653,1.773-3.139,1.144-5.554-2.237-7.36a56.643,56.643,0,0,1-17.376-14.735c-4.187-5.179-4.785-5.163-8.731.354-9.51,13.3-17.779,27.324-23.39,42.753C604.391,248.283,603.018,252.439,603.2,256.867Zm73.891-80.524c-.036-7.874-1.671-12.275-5.028-13.863-4.666-2.206-9.019-.752-13.134,1.763a36.005,36.005,0,0,0-8.973,7.747,23.024,23.024,0,0,0,10.018,36.664c2.463.9,4.527,1.127,5.954-1.44C671.584,197.05,676.292,186.553,677.094,176.343Z"/>
    <path d="M438.808,80.437q-14.65,25.522-29.3,51.043-14.943,25.977-29.923,51.932a36.235,36.235,0,0,0-2.769,5.263c-.717,1.923-.679,4.029.981,5.557,1.718,1.581,3.847,1.168,5.608.22A66.5,66.5,0,0,0,401.5,180.528q10.373-11.506,19.574-23.982c3.221-4.359,3.388-4.235,9.812-4.061.967,1.832-.3,3.107-1.181,4.42-14.179,21.14-30.706,40.205-50.4,56.4-5.389,4.434-11.025,8.6-18.033,10.368-11.663,2.948-17.989-1.375-19.155-13.244-.16-1.623-.292-3.249-.432-4.808-4.2-1.228-5.5,2.225-7.6,3.959-7.2,5.94-14.2,12.1-23.643,14.412-13.547,3.322-21.967-3.315-22.5-17.224-.228-6,2.354-11.667,1.652-17.746-4.224.072-5.946,3.31-8.237,5.507-7.462,7.159-15.043,14.159-23.641,19.958a59.976,59.976,0,0,1-24.748,10.1c-16.315,2.47-27.835-5.894-30.92-22.214-2.257-11.937-.23-23.227,4.37-34.161,3.094-7.354,6.684-14.5,10.074-21.731.841-1.793,2.093-3.443,1.669-6.242-7.471-.11-13.955,1.115-17.873,8.83-2.706,5.328-6.164,10.274-9.287,15.39-11.77,19.278-27.147,35.3-44.821,49.163-6.582,5.164-13.814,9.274-22.233,10.854-10.838,2.035-19.1-2.628-22.407-13.27-3.933-12.663-1.427-25.083,2.556-37.218,7.929-24.157,21.664-44.86,38.727-63.456,11.078-12.073,23-23.173,37.827-30.652,5.69-2.87,11.57-5.164,18-5.5,12.028-.634,19.563,6.109,20.552,18.133.814,9.9-2.06,19.094-5.115,28.287-1.022,3.076-3.215,5.877-2.488,10.046,4.211,1.025,7.529-1.13,10.81-3.092a128.3,128.3,0,0,0,27.8-22.64,150.769,150.769,0,0,1,23.15-20.5c7.691-5.407,15.851-9.884,25.59-10.253,14.869-.561,23.763,8.185,22.09,22.69a42.074,42.074,0,0,1-16.753,29.585c-2.644,2.007-5.628,3.692-9.157,1.374-3.231-2.123-4.142-5.267-3.615-8.7,1.37-8.926,6.17-15.605,14.871-18.263,4.557-1.393,7.461-2.729,6.1-7.974-1.153-4.447-5.048-6.353-10.349-4.843a33.271,33.271,0,0,0-12.883,7.428c-25.334,22.427-42.144,50.357-52.939,82.157a7.2,7.2,0,0,0-.316.947c-1.581,8.377-2.86,16.963,5.076,22.921,7.582,5.693,14.825,1.224,21.311-2.666,10.039-6.021,18.578-14,26.341-22.773,10.613-12,20.076-24.871,29.268-37.964,12.282-17.493,25.664-34.048,42-47.982,6.6-5.629,13.563-10.753,21.794-13.881,8.04-3.056,15.621-3.115,22.395,3.022,1.429,1.3,2.825,3.422,5.011,1.963,9.213-6.152,19.146-1.55,28.641-3.161Q438.324,79.337,438.808,80.437Zm-108.892,116.3c2.5.091,4.478-1.17,6.364-2.545,6.478-4.723,12.4-9.943,16.942-16.718,10.751-16.047,20.1-32.926,29.86-49.562q8.58-14.626,16.79-29.468c1.555-2.8,3.824-5.85.4-8.974-3.05-2.788-6.175-1.511-9.264-.067a31.262,31.262,0,0,0-10.375,7.647c-19.84,22.543-38.069,46.224-50.825,73.634a107.5,107.5,0,0,0-6.056,16.879C322.333,192.76,325.324,196.7,329.916,196.741ZM167.181,121.855a6.36,6.36,0,0,0-4.436,2.966c-6.707,10.333-13.555,20.6-18.84,31.761-3.563,7.526-6.682,15.251-8.21,23.5-1.033,5.573-.364,10.9,4.609,14.31,4.923,3.381,9.552.551,13.977-1.851.868-.472,1.591-1.2,2.416-1.765,16.573-11.261,25.926-28.269,35.776-44.889,1.809-3.052.857-5.2-2.227-6.234C180.4,136.342,173.249,129.531,167.181,121.855Zm42.948-20.518c-.163-5.512-.875-10.418-5.421-12.823-4.748-2.512-9.65-1.136-14.086,1.766a32.03,32.03,0,0,0-9.628,9.926c-10.032,15.955-.237,27.19,12.994,31.575,3.117,1.033,6.11.559,7.6-2.772C205.645,119.928,209.711,110.822,210.129,101.337Z"/>
    <path d="M795.007,42.507c-5.595,5.975-11.483,12.225-17.322,18.521-2.454,2.647-4.816,2.413-7.955.847-8.384-4.184-15.89-9.716-23.726-14.737C731.436,37.8,717.27,27.771,700.831,21.777,692.97,18.91,685,16.7,676.481,17.221c-4.749.293-7.2,2.16-7.273,7.349-.464,31.472-15.318,56.632-35.534,79.23a56.1,56.1,0,0,1-24.632,16.515c-12.751,4.116-21.055-1.582-21.746-14.908-.335-6.455,1.215-12.489,3.636-18.447,11.134-27.4,29.781-48.616,53.635-65.6,2.167-1.542,4.344-3.072,6.458-4.685a10.144,10.144,0,0,0,1.437-2.176c-6.776-4.109-13.343-1.943-19.513.707-12.3,5.284-23.438,12.627-33.968,20.849-19.8,15.462-36.571,33.922-52.428,53.286-24.166,29.512-44.767,61.251-60.311,96.16A181.871,181.871,0,0,0,471.6,241.281a38.784,38.784,0,0,0,3.89,21.379c6.189,12.487,18.448,17.435,31.957,12.9,9.664-3.247,17.8-9.152,25.023-16.093,18.265-17.556,32.394-37.914,40.5-62.147,2.442-7.305,4.355-14.759,3.948-22.494-.58-10.993-7.779-14.814-17.051-8.778a49.374,49.374,0,0,0-20.75,27.391c-3.88,13.482-11.051,22.5-23.256,28.78-7.034,3.616-12.265,10.028-19.3,16.358.018-11.786,3.206-21.353,6.522-30.84,6.883-19.691,18.268-36.184,35.46-48.3,7.726-5.446,16.219-9.2,25.814-9.837,9.982-.661,15.595,3.158,18.916,12.653a38.425,38.425,0,0,1,1.121,21.686c-10.77,46.072-36.729,81.426-76.542,106.582-11.533,7.287-24.589,10.785-38.236,8.28-20.63-3.786-30.823-18.258-35.508-37.413-4.859-19.867-.9-39.021,5.527-57.839,12.628-36.969,32.615-69.9,56.3-100.649C518.8,73.184,544.733,46.533,576.2,25.67A178.257,178.257,0,0,1,624.8,2.763c11.9-3.472,24.392-4.821,35.422,3.422,3.781,2.826,7.222,2.354,11.175.7C682.937,2.054,694.99.392,707.5.759c11.965.352,23,3.908,33.436,9.134,17.266,8.644,34.038,18.232,50.429,28.464C792.743,39.216,794.278,39.942,795.007,42.507ZM661.031,29.455c.012-1.575.454-3.824-1.29-5.171-2.431-1.879-4.241.663-6.27,1.425a13.4,13.4,0,0,0-2.543,1.553c-23.269,15.47-40.4,36.177-52.2,61.383a34.12,34.12,0,0,0-3.673,13.343c-.3,9.313,5.619,13.471,14.252,9.828a38.724,38.724,0,0,0,6.832-4.061,99.407,99.407,0,0,0,22.6-22.277C651.169,68.965,659.048,50.576,661.031,29.455Z"/>
    <path d="M397.86,298.36c-9.288-2.984-17.911-7.128-27.136-9.771a114.727,114.727,0,0,0-34.46-4.855c-15.816.371-29.29,5.746-38.574,18.859-1.171-.456-1.978-.506-2.255-.915-14.665-21.642-36.45-28.949-61.121-30.151-24.93-1.215-48.992,4.082-72.862,10.419-25.09,6.662-50.2,13.179-75.979,16.721A85.968,85.968,0,0,1,46.018,295.3C17.4,285.72,1.036,261.438.063,228.433-.826,198.3,7.825,170.481,20.668,143.9,43.129,97.41,76.11,59.5,117.555,28.913a176.5,176.5,0,0,1,51.4-26.184C178.309-.257,188.036-.522,197.648.64c9.208,1.112,16.863,10.177,17.293,20.537.573,13.791-5.6,25.072-14.9,34.755A14.478,14.478,0,0,1,194,59.258c-7.4,2.3-13.037-2.258-11.561-9.891,1.712-8.852,6.108-16.123,15.3-19.4,7.478-2.671,8.972-4.433,8.045-8.941-1.042-5.062-4.784-7.763-11.132-7.922a32.935,32.935,0,0,0-12.64,2.469c-14.552,5.54-27.162,14.168-38.409,24.7C106.49,75.035,76.42,114.983,56.117,161.805c-7.952,18.338-14.444,37.229-15.74,57.5a90.469,90.469,0,0,0,1.8,25.812c4.975,22.044,20.987,32.014,41.3,37.169,13.981,3.549,27.819,1.6,41.6-1.04,33.688-6.445,66.673-15.883,100.051-23.649,26.043-6.059,52.332-9.6,79.217-7.481,20.321,1.6,39.2,7.254,56.433,18.142C374.261,276.777,386.981,286.306,397.86,298.36Z"/>
    <path d="M937.039,7.05C910.3,56.806,847.783,89.544,808.867,77.061c4.545-8.684,11.379-15.413,17.7-22.539,1.5-1.7,3.388-1.822,5.443-1.693,33.526,2.112,61.254-12.029,87.109-31.25C924.837,17.325,930.213,12.605,937.039,7.05Z"/>
    <path d="M489.362,78.354c-5,8.273-8.888,14.748-12.828,21.191a7.189,7.189,0,0,1-6.674,3.522c-6.562-.056-13.124-.018-20.671-.018,2.909-9.342,8.452-15.888,12.935-22.993,1.246-1.974,3.462-1.669,5.4-1.684C474.127,78.323,480.727,78.354,489.362,78.354Z"/>
  </g>
</svg>
