<svg xmlns="http://www.w3.org/2000/svg" width="185.873mm" height="125.146mm" viewBox="0 0 526.884 354.745">
  <g>
    <path d="M312.429,127.323,199.524,2.967C201.5-.73,204.107.135,206.248.13,234.883.063,263.519.174,292.154,0A13.993,13.993,0,0,1,303.47,4.951q53.295,58.824,106.677,117.568c4.5,4.963,4.454,5.45-1.017,11.512q-22.745,25.2-45.665,50.234c-19.5,21.412-39.116,42.716-58.426,64.3-4.356,4.868-8.939,6.964-15.548,6.881-26.967-.336-53.94-.151-80.911-.164a42.578,42.578,0,0,1-5.983-.124c-2.711-.389-3.287-2.218-1.67-4.2,2.943-3.605,6.147-7,9.283-10.445q48.049-52.8,96.1-105.61C308.309,132.7,310.063,130.265,312.429,127.323Z"/>
    <path d="M113.942,171.245c1.946-5.616,6.313-9.832,9.672-14.628,5.54-7.91,11.311-15.665,17.189-23.33,3.083-4.021,3-7.4-.111-11.481-8.274-10.863-16.223-21.975-24.267-33.013-1.108-1.52-3.034-2.77-2.11-5.159,1.968-1.526,3.723-.272,5.594.339,12.975,4.241,26.057,8.176,38.913,12.747,5,1.776,7.912.808,10.842-3.447,6.987-10.147,14.325-20.054,21.577-30.017,1.725-2.369,3.137-5.07,5.462-6.526,3.447.524,2.8,2.869,2.8,4.72.025,13-.052,25.994-.029,38.991.017,9.22.048,9.269,9.191,12.273q18.027,5.922,36.1,11.69c1.893.607,4,.77,4.817,3.68-6.49,3.868-13.956,5.647-21.12,8.1-7.556,2.586-15.149,5.112-22.85,7.2-4.681,1.272-6.344,3.7-6.251,8.519.271,13.992.127,27.992.113,41.989,0,1.309-.23,2.618-.34,3.783-3.32,1.836-4.336-.805-5.62-2.572q-11.164-15.357-22.224-30.789c-5.621-7.814-5.6-7.794-14.36-4.931-12.344,4.034-24.71,8-37.049,12.052C118,172.057,116.208,173.173,113.942,171.245Z"/>
    <path d="M183.59,318.425c0-6.268-.118-12.54.03-18.805.179-7.522.595-7.839,7.988-8.055,9.657-.282,10.217.168,10.271,9.731.082,14.639.13,29.279,0,43.916-.064,6.967-.628,7.07-7.3,7.688-8.209.761-14.694-.732-19.08-8.884-3.42-6.356-8.388-11.879-12.62-17.706-3.659,1.2-2.417,3.934-2.537,5.993-.193,3.316.064,6.655-.065,9.977-.125,3.247,1.311,7.5-1.685,9.4-4.017,2.544-9.141,1.615-13.622.708-3.833-.776-2.978-4.678-2.99-7.545-.062-14.971-.022-29.943-.018-44.915,0-.665.046-1.333,0-2-.306-4.753,2.138-6.183,6.629-6.5,7.559-.537,13.32,1.236,17.7,8.12,4.4,6.909,9.973,13.072,15.031,19.561Z"/>
    <path d="M496.262,312.059c6.127,2.626,12.471,1.134,18.616,1.388,8.5.352,11.973,5.636,8.9,13.755-1.039,2.746-3.177,3.138-5.588,3.154-4.994.033-9.989-.061-14.981.022-2.459.04-5.145-.5-7.161,1.378.709,3.227,3,2.756,4.8,2.786,6.657.111,13.319.158,19.975.045,4.22-.072,6.134,1.841,6.046,5.986-.05,2.329-.014,4.66-.018,6.991-.008,3.779-2.027,5.281-5.666,5.268-12.652-.048-25.3-.066-37.955.017-4.3.029-5.9-2.071-5.889-6.139q.084-24.469.01-48.941c-.013-4.093,1.717-6.2,5.917-6.188q18.976.047,37.954.01c3.634-.007,5.635,1.575,5.623,5.349,0,1.331.045,2.663.036,3.994-.055,8.25-.271,8.532-8.27,8.7-5.325.113-10.656-.041-15.98.076C500.457,309.76,497.935,309.116,496.262,312.059Z"/>
    <path d="M305.508,311.919c5.741,2.838,11.462,1.439,16.943,1.483,10.079.08,10.927-.679,10.676,11.36-.093,4.429-2.519,5.683-6.422,5.628-5.321-.075-10.645-.087-15.966.012-1.8.033-3.96-.441-5.107,2.11,1.2,2.645,3.717,2.026,5.837,2.059,5.653.088,11.312-.083,16.964.058,7.415.185,7.825.758,7.812,9.211-.012,8.394-.323,8.888-8,8.969-11.641.124-23.286-.072-34.927.073-4.574.057-6.659-1.634-6.623-6.382q.186-24.448.009-48.9c-.025-4.22,1.822-6.055,5.957-6.042,12.308.038,24.617.087,36.923-.048,4.572-.051,6.9,1.711,6.637,6.428-.056.994.019,2,.013,2.993-.048,8.139-.383,8.559-8.272,8.736-5.32.119-10.645-.031-15.966.05C310.062,309.748,307.956,309.357,305.508,311.919Z"/>
    <path d="M99.109,354.607c-18.348-.078-33.415-15.017-33.088-32.809.317-17.263,15.631-31.912,33.277-31.833,18.279.083,33.312,15.164,32.93,33.035C131.85,340.651,117.146,354.683,99.109,354.607ZM85.717,321.714a13.544,13.544,0,1,0,27.055,1.332,13.544,13.544,0,0,0-27.055-1.332Z"/>
    <path d="M350.5,322.115c0-7.993.116-15.988-.039-23.979-.089-4.589,1.714-6.7,6.44-6.6,8.655.195,17.319-.016,25.973.216,13.579.364,26.843,17.185,14.636,32.082-3.545,4.326-3.167,7.277-.695,11.393,2.394,3.985,4.376,8.226,6.395,12.424,1.547,3.215.582,5.122-3.189,5.16a38.273,38.273,0,0,0-5.986.063c-6.839,1.169-10.532-2.1-12.8-8.181a78.535,78.535,0,0,0-4.917-9.8,4.693,4.693,0,0,0-4.918-2.711c-2.643.366-2.693,2.536-2.747,4.545-.07,2.663.019,5.331-.082,7.992-.288,7.578-.631,7.9-7.939,8.112-9.791.282-10.043.071-10.122-9.736C350.451,336.1,350.5,329.109,350.5,322.115Zm17.9-10.522c8.126,2.115,8.126,2.115,13.16-.361C375.7,309.644,375.7,309.644,368.4,311.593Z"/>
    <path d="M439.827,354.636c-9.085.553-17.124-2.178-24.635-6.943-3.45-2.19-4.833-4.452-1.469-7.85a55.482,55.482,0,0,0,3.854-4.58c2.186-2.744,4.5-3.376,7.757-1.426,4.894,2.935,10.181,4.971,16.071,4.625,1.969-.115,4.46,0,4.958-2.353.528-2.492-1.838-3.153-3.731-3.712-4.461-1.319-9-2.389-13.409-3.863-10.864-3.633-15.782-10.088-15.118-19.493.675-9.571,7.3-16.53,17.982-18.476a39.544,39.544,0,0,1,27.884,4.917c3.63,2.129,4.262,4.347,1.423,7.967-5.773,7.359-6,7.619-15.52,4.363a6.122,6.122,0,0,0-.931-.357c-3.442-.561-8.595-3.159-9.737.907-1.41,5.016,4.748,4.2,7.785,5.153,5.032,1.58,10.324,2.1,14.947,5.135,12.2,8.012,12.65,22.92.809,31.524C453.018,354.337,446.515,355.067,439.827,354.636Z"/>
    <path d="M244.2,331.876c5.257-11.7,7.486-22.461,11.041-32.746.965-2.791,1.174-6.54,4.624-7.105,5.213-.853,10.75-1.5,15.754.533,2.766,1.124.98,4.089.291,6.208q-6.177,19-12.42,37.986c-6.3,19.254-2.42,15.739-22.373,16.056-10.329.163-10.4.031-13.461-9.193q-7.071-21.335-13.944-42.732c-2.819-8.841-2.506-9.163,6.411-9.337,10.985-.215,11.03-.229,14.5,10.4C237.692,311.314,240.639,320.721,244.2,331.876Z"/>
    <path d="M33.765,354.624C17.923,354.461,4.357,344.07.89,329.815c-3.471-14.274,3.42-28.807,17.054-35.963,13.255-6.957,30.909-4.161,40.5,6.415,3.7,4.082,3.621,5.08-1.025,8.6-2.12,1.6-4.393,3.006-6.584,4.518-2.13,1.47-4.173,1.772-6.363-.012a23.449,23.449,0,0,0-4.948-3.313,14.051,14.051,0,0,0-17.044,4.251,13.814,13.814,0,0,0,.579,16.684c4.154,5.03,12.09,7.512,16.951,3.189,7.794-6.929,12.421-1.331,18.01,2.4,3.782,2.524,3.6,5.092.464,8.021C51.38,351.246,43.239,355.207,33.765,354.624Z"/>
  </g>
</svg>
