<svg xmlns="http://www.w3.org/2000/svg" width="337.66mm" height="110.749mm" viewBox="0 0 957.146 313.934">
  <g>
    <path d="M180.174,111.483c15.33,0,30.66-.083,45.989.04,7.261.058,8.953,1.521,9.439,8.529,2.119,30.582-3.521,59.149-23.429,83.456-19.131,23.358-44.345,35.676-74.177,38.356-23.557,2.117-46.668-.013-68.129-11.008C29.943,210.4,6.356,178.172.833,133.366-7.506,65.714,48.136,6.789,106.583.807c30.8-3.153,58.8,2.825,84.5,19.888a76.966,76.966,0,0,1,7.935,6.049c5.312,4.625,5.392,5.368.882,10.312-4.04,4.429-8.427,8.544-12.412,13.019-3.139,3.526-5.629,3.266-9.206.3a83.137,83.137,0,0,0-41.452-18.473C103.8,27,76.107,37.6,54.88,62.862c-37.625,44.78-23.954,115.449,30.425,140.411,28.429,13.051,56.994,11.54,84.413-3.722,18.33-10.2,28.456-26.575,32.9-46.7,1.816-8.216.23-10.366-8.246-10.464-18.66-.215-37.324-.077-55.986-.105-13.584-.021-13.6-.038-13.615-13.873-.015-19.33-.89-16.8,16.409-16.914C154.18,111.409,167.177,111.48,180.174,111.483Z"/>
    <path d="M710.554,226.909c-3.189-.959-4.506.846-5.887,2.145-15.786,14.85-34.944,16.436-54.208,11.152-31.553-8.653-49.295-30.473-55.816-62.567C588.621,148,606.1,106.8,640.8,93.042c22.5-8.918,44.2-8.475,63.927,7.512a18.17,18.17,0,0,0,3.33,2.139,4.7,4.7,0,0,0,1.912.044c2.719-11.21,2.719-11.214,14.924-11.216,3.665,0,7.33.062,10.994.027,4.21-.04,6.037,2.147,6,6.191-.009,1,.056,2,.054,3-.067,46.976,0,93.954-.3,140.929a81.253,81.253,0,0,1-8.337,34.678c-11.321,23.65-31.213,35.169-56.347,37.251-29.421,2.436-53.478-8.2-70.361-33.185-1.117-1.653-2.134-3.375-3.174-5.08-2.308-3.784-2.349-6.809,2.555-8.54,3.133-1.106,6.119-2.62,9.218-3.83,3.989-1.558,7.9-4.835,12.1-3.892,4.007.9,4.74,6.045,7.2,9.119,13.006,16.273,33.821,21.545,53.059,13.363a36.162,36.162,0,0,0,16.656-13.827C712.459,254.951,712.278,240.976,710.554,226.909Zm-41-13.129c17.34.315,31.892-8.4,39.23-24.176,7.244-15.574,7.6-31.632.668-47.334-6.663-15.1-18.43-24.582-35.077-26.061-17-1.511-30.632,5.684-39.975,19.815s-11.16,29.8-6.133,45.922C634.339,201.438,650.235,213.43,669.549,213.78Z"/>
    <path d="M576.081,164.736c2.025,46.735-38.98,77.63-76.382,77.659-38.926.03-77.741-29.253-77.976-77.722-.215-44.311,34.625-77.015,77.554-77C539.593,87.689,577.428,118.063,576.081,164.736ZM498.95,213.763c19.26.064,34.5-9.715,41.862-26.695a57.046,57.046,0,0,0,4.268-29.292c-2.355-21.88-19.963-40.013-40.5-41.9-22.929-2.109-41.658,10.464-49.038,32.536-2.291,6.853-2,13.776-1.978,20.74C453.637,188.912,470.47,215.3,498.95,213.763Z"/>
    <path d="M403.8,164.687c3.2,42.557-35.462,78-76.339,77.587-40.786-.41-77.747-30.2-77.669-78.106.072-44.9,35.179-76.351,77.207-76.477C369.478,87.563,406.145,120.762,403.8,164.687Zm-122.26.05c0,1.332-.025,2.665,0,4,.492,23.128,17.237,42.424,38.978,44.925,24.86,2.86,44.9-10.841,51.056-34.561a55.845,55.845,0,0,0-1.3-32.432,45.16,45.16,0,0,0-56.991-28.827C293.424,124.3,281.543,141.846,281.543,164.737Z"/>
    <path d="M818.91,164.171a73.38,73.38,0,0,1,11.711-43.662c28.5-45.206,92.748-43.537,118.686,3.13a125.566,125.566,0,0,1,6.4,13.525c2.51,6.146,2.073,7.285-3.968,9.951-8.518,3.76-17.156,7.249-25.754,10.825q-31.309,13.024-62.63,26.023c-1.228.51-2.438,1.068-3.677,1.551-4.388,1.714-5.418,4.561-2.954,8.615,6.383,10.5,15.3,17.475,27.641,19.366,17.6,2.7,33.106-1.19,44.963-15.305,2.983-3.551,5.617-3.872,9.293-1.109a144.459,144.459,0,0,0,14.073,9.47c4.293,2.5,3.444,4.714.773,7.809-20.336,23.575-46.079,32.333-76.187,25.983-30.611-6.457-49.2-26.267-57.028-56.323C818.557,177.522,819.314,170.771,818.91,164.171Zm29.107-8.081c.012,5.354,2.3,7.264,7.468,5.839a71.187,71.187,0,0,0,8.351-3.209c15.611-6.519,31.244-12.984,46.786-19.663,3.788-1.628,9.562-2.113,9.86-7.069.289-4.829-4.268-7.926-8.046-10.691a26.358,26.358,0,0,0-5.123-3.047C879.332,106.3,851.068,128.576,848.017,156.09Z"/>
    <path d="M766.34,123.67q0-52.5,0-105c0-2.334.136-4.672.013-7-.208-3.945,1.774-5.211,5.451-5.153,7.664.121,15.334.157,23-.019,4.1-.093,6.362,1.165,6,5.647-.163,1.986-.007,4-.007,6q0,105,0,209.993c0,2-.134,4.006-.016,6,.232,3.938-1.772,5.267-5.436,5.225-7.665-.088-15.334-.113-23,.02-4.064.071-6.323-1.28-6-5.721.166-2.321.006-4.664.006-7Q766.34,175.169,766.34,123.67Z"/>
  </g>
</svg>
