<svg xmlns="http://www.w3.org/2000/svg" width="149.035mm" height="173.637mm" viewBox="0 0 422.46 492.199">
  <g>
    <path d="M2.192,0c10.581,11.018,20.085,21.2,29.9,31.079,27.933,28.107,55.863,56.22,84.119,84,5.22,5.131,7.149,10.315,7.077,17.5-.329,32.974-.145,65.953-.144,98.931,0,2.331.165,4.675-.014,6.992-.378,4.923,2.132,6.394,6.623,6.24,5.323-.183,10.658-.029,15.987-.028,30.313,0,60.626.1,90.937-.083,5.661-.034,10.047,1.278,14.208,5.469Q306.5,306.113,362.434,361.8c1.368,1.369,2.963,2.616,3.455,4.845-2.586,2.435-5.7,1.375-8.481,1.377q-173.381.149-346.76.161c-1.666,0-3.336-.1-5-.015-3.766.2-5.541-1.493-5.39-5.288.079-2-.015-4-.015-6Q.217,184.5.229,12.12C.229,8.879-.529,5.514,2.192,0Z"/>
    <path d="M231.724,435.839c0-7.695-.2-14.335.06-20.959.219-5.641,1.248-6.045,8.821-6.036,4.488.006,7.671.537,7.62,6.364-.206,23.311-.142,46.625-.061,69.938.015,4.231-1.731,6.417-5.921,5.925-8.443-.991-16.731.337-25.113.812-16.077.911-27.57-11.757-28.538-28.2-.838-14.242,8.729-29.621,27.143-31.108C220.776,432.167,225.29,434.8,231.724,435.839Zm-.039,27.03c.056-10.451-3.485-14.607-12.625-14.822-8.319-.2-14.353,5.654-14.555,14.109-.194,8.111,6.043,14.956,13.871,15.222C226.9,477.667,231.634,472.505,231.685,462.869Z"/>
    <path d="M114.4,463.292c0,7.32-.161,14.645.061,21.958.131,4.3-1.627,6.41-5.808,5.853-8.042-1.071-15.873,0-23.9.737-16.119,1.487-29.043-11.415-29.924-28.114-.824-15.608,11.085-29.608,26.446-31.08a5.092,5.092,0,0,1,1.982-.061c8.517,2.866,17.17,2.59,25.917,1.4,3.849-.521,5.3,1.621,5.243,5.347-.112,7.984-.034,15.97-.034,23.956ZM98.73,462.255c-.038-9.871-4.233-14.26-13.577-14.207a14.162,14.162,0,0,0-14.177,14.759c.146,7.924,7.122,14.828,14.757,14.6C94.2,477.166,98.766,471.838,98.73,462.255Z"/>
    <path d="M124.226,462.389c0-6.986-.1-13.974.03-20.957.138-7.489.288-7.549,8.062-7.5,1.659.01,3.6-.39,4.921.316,3.589,1.92,6.716.971,10.312-.1,16.36-4.857,31.344,5.008,32.875,22.069.889,9.9.281,19.939.5,29.912.089,4.125-2.25,4.821-5.663,5.056-9.41.645-10.364-.083-10.43-9.266-.047-6.653.075-13.308-.036-19.959-.165-9.927-3.56-13.933-11.557-13.909-8.683.027-12.791,4.355-12.873,13.721-.069,7.983-.143,15.969.016,23.95.077,3.856-1.622,5.15-5.285,5.471-9.709.851-10.8,0-10.863-9.844C124.194,475.029,124.224,468.709,124.226,462.389Z"/>
    <path d="M335.938,492.149c-16.253-.025-27.948-10.42-29.407-25.8-1.611-16.97,6.841-29.54,22.183-32.99,17-3.824,33.759,11.23,32.239,28.756-.312,3.59-2.027,4.484-5.107,4.477-9-.021-17.993-.058-26.987.091-2.1.035-5.182-1.157-5.918,1.966-.564,2.4,1.415,4.331,3.108,5.948,4.6,4.389,11.961,5.041,18.653,1.752,6.431-3.161,7.725-2.749,11.964,2.26,2.361,2.791,1.731,4.638-.765,6.621A29.691,29.691,0,0,1,335.938,492.149Zm-13.045-36.928c7.859-.012,14.627,1.674,21.417-1.083C337.44,443.482,329.292,443.633,322.893,455.221Z"/>
    <path d="M.05,449.179c0-11.316-.14-22.634.052-33.947.1-6.054.815-6.391,8.4-6.348,7.526.044,8.006.239,8.059,6.665.139,16.973.017,33.948.064,50.922.027,9.59.085,9.6,10,9.663,6.324.037,12.651.159,18.97,0,5.681-.145,5.277,3.694,5.271,7.428-.006,3.693.492,7.582-5.151,7.553-13.312-.067-26.626-.08-39.937.044-4.324.041-5.823-1.87-5.775-6.033C.142,473.144.053,461.161.05,449.179Z"/>
    <path d="M398.343,492.154c-13.987-.1-25.414-7.8-29.174-19.284-4.247-12.969-.353-26.182,10.018-34,10.317-7.772,25.034-8.333,35.39-.788,2.652,1.932,8.485,3.392,4.667,8.914a25.029,25.029,0,0,1-5.685,5.549c-3.11,2.322-4.657-1.2-6.778-2.31-7.019-3.66-14.608-2.893-19.247,2.132a15.177,15.177,0,0,0-2.156,17.563c4.405,7.6,14.266,9.455,22.706,4.4,2.123-1.271,3.691-4.909,6.627-3.117,2.751,1.679,4.981,4.372,7.071,6.921,1.668,2.034-.093,3.746-1.5,5.11C414.017,489.3,406.647,492.634,398.343,492.154Z"/>
    <path d="M276.687,492.127c-6.47.015-12.566-1.353-17.858-5.242-1.986-1.46-5.068-2.55-3.2-6.14,2.115-4.073,7.133-7.044,10.116-5.358a20.8,20.8,0,0,0,12.356,3.034c2.481-.216,4.693-.942,5.183-3.713.429-2.425-1.443-3.625-3.268-4.412-3.655-1.577-7.462-2.8-11.12-4.375-6.788-2.917-12.122-7.166-12.2-15.361-.07-6.884,5.249-13.253,12.842-16.149,8.031-3.063,15.712-1.9,23.117,1.791,2.463,1.228,6.06,2.224,5.26,6.112-.807,3.93-7,7.394-10.634,6.188-3.448-1.145-6.755-3.152-10.541-1.627-1.458.587-3.242,1.212-3.174,3.306a3.382,3.382,0,0,0,2.387,2.91c3.375,1.389,6.871,2.487,10.24,3.889,10.132,4.213,15.193,11.377,13.837,19.4-1.529,9.056-9.5,15.224-20.341,15.736C278.684,492.168,277.684,492.127,276.687,492.127Z"/>
  </g>
</svg>
