<svg xmlns="http://www.w3.org/2000/svg" width="456.22mm" height="96.783mm" viewBox="0 0 1293.223 274.344">
  <g>
    <path d="M.091,64.518c0-17.968-.068-35.937.031-53.9C.17,1.791.462,1.394,9.01,1.373q56.4-.145,112.8,0c8.647.021,8.949.391,8.965,9.141q.1,54.9,0,109.808c-.017,9.5-2.143,11.675-11.864,11.7q-53.406.15-106.812,0c-10.064-.028-11.96-2.151-12-12.6C.041,101.121.089,82.82.091,64.518Z"/>
    <path d="M210.676.023c18.981-.007,37.961-.057,56.941.017,7.545.029,8.184.456,8.206,7.819q.168,57.439-.023,114.88c-.035,8.435-1.765,9.948-9.973,9.964q-55.942.107-111.883-.007c-7.811-.017-8.6-.7-8.619-8.592q-.175-58.439-.018-116.878c.015-7,.259-7.139,7.43-7.168C172.05-.022,191.363.03,210.676.023Z"/>
    <path d="M508.862,98.435c-8.46,12.3-10.907,24.572-15.884,35.732-4.351,9.756-8.235,19.719-12.372,29.57-1.881,4.479-2.932,9.194-5.013,13.689-4.75,10.258-7.814,21.258-13.268,31.271-1.05,1.927-.376,4.818-1.478,6.685-2.762,4.676-7.166,6.076-12.652,5.989-5.669-.09-11.034-.693-13.559-6.167-3.535-7.664-6.092-15.774-9.258-23.617-3.528-8.735-7.36-17.348-10.895-26.081-3.88-9.588-7.49-19.286-11.371-28.874-3.535-8.733-6.907-17.569-11.124-25.971-1.511-3.009-1.445-6.454-3.772-9.669-3.634,2.2-2.447,5.737-2.46,8.6-.1,22.329-.056,44.658-.054,66.988,0,11.664.1,23.33-.022,34.993-.094,8.821-.787,9.38-9.87,9.63-2,.055-4,.029-6,.015-10.725-.074-10.808-.076-10.816-11.274q-.05-72.486,0-144.972c.01-10.8.252-10.953,11.372-11.028,7-.048,14-.152,21,.048,6.384.183,10,3.551,12.12,9.477,3.611,10.11,7.858,19.992,11.762,29.982,3.65,9.343,7.968,18.43,10.927,28.1,2.766,9.04,7.145,17.579,10.679,26.393,2.4,5.99,4.767,12.01,6.732,18.15.654,2.045,1.375,3.629,3.145,4.762,2.067,1.323,3.567,1.239,4.589-1.345,7.861-19.88,15.183-40,23.853-59.523,7.388-16.634,12.69-34.128,21.337-50.251,2.083-3.886,4.421-5.616,8.314-5.682,8.329-.141,16.661-.035,24.992-.094,4.887-.035,7.46,2.264,7.583,7.185.049,2,.053,4,.053,6q0,70.486,0,140.974c0,2.332.026,4.669-.108,7-.221,3.872-1.976,6.1-6.229,6.078-24.949-.1-21.71,2.871-21.785-19.639-.1-31.66.062-63.32.083-94.981C509.414,104.654,509.162,102.726,508.862,98.435Z"/>
    <path d="M65.682,274.321c-18.981,0-37.963.066-56.944-.029-8.333-.041-8.655-.28-8.673-8.267q-.132-55.444,0-110.89c.017-7.724,1.466-9.088,9.233-9.819,2.314-.217,4.658-.147,6.989-.148q48.951-.012,97.9,0a74.775,74.775,0,0,1,7.984.209c7.487.81,8.628,1.862,8.645,9.3q.127,55.944,0,111.889c-.019,7.393-.374,7.671-8.185,7.717C103.645,274.4,84.663,274.319,65.682,274.321Z"/>
    <path d="M273.1,211.541c0,16.977.052,33.953-.017,50.929-.045,11.106-.382,11.474-11.027,11.489q-52.426.072-104.853,0c-10.424-.013-10.739-.316-10.753-10.571q-.07-52.427,0-104.854c.014-10.75.434-11.2,11.318-11.218q51.927-.089,103.855,0c10.7.021,11.393.723,11.451,11.3C273.171,176.257,273.1,193.9,273.1,211.541Z"/>
    <path d="M1292.049,196.258c1.77,6.558,1.02,12.207.994,17.771-.022,4.74-2.831,7.229-7.468,7.743-8.976,1-18.073,1.641-26.906-.078-8.747-1.7-14.892-8.009-18.963-15.54a39.725,39.725,0,0,1-4.666-20.029c.394-17.655.187-35.325.091-52.988-.043-7.768-.188-7.837-7.652-7.905-8.664-.08-17.34.225-25.992-.117-4.881-.193-6.7,1.644-6.352,6.32.171,2.319.009,4.663.009,7q0,34.494,0,68.988c.008,15.647.376,13.649-14.3,13.8-2.333.025-4.673.1-7-.047-6.189-.4-8.862-3.024-9.354-9.194-.158-1.987-.022-4-.022-6q0-33.993,0-67.988c0-2.332-.077-4.665-.064-7,.022-4.052-1.656-5.716-6-5.911-12.834-.575-12.824-.782-12.58-14.054.152-8.215.151-8.221,8.191-8.44,1.665-.046,3.337-.113,5-.018,3.912.224,5.547-1.879,5.318-5.454-.5-7.782,1.777-15.121,3.114-22.641,2.937-16.519,17.048-29.361,33.674-29.861,6.652-.2,13.318.084,19.977.06,3.287-.013,4.984,1.374,4.813,4.767-.331,6.588,1.114,13.292-1.186,19.967-3.382-.377-6.126-2.335-9.532-2.473-11.661-.469-19.837,6.948-20.046,18.713-.3,16.931-.3,16.932,16.69,16.93,6,0,12-.1,18,.024,3.818.08,5.438-1.6,5.338-5.362-.108-4-.025-8,0-12,.057-8.252,2.724-12.118,10.664-13.774,4.47-.933,8.853-.9,13.048-3.738,3.57-2.412,6.563.083,6.727,5.126.249,7.658.312,15.336.052,22.991-.18,5.283,2.037,7.068,7.105,6.8,5.316-.281,10.661-.008,15.992,0,2.819.006,4.357,1.284,4.327,4.206-.007.666.046,1.333.041,2-.156,19.582,1.962,15.989-15.395,16.341-11.7.237-12.06-2.412-12.018,11.7.049,16.33-.145,32.664.141,48.989.233,13.281,10.687,18.65,22.472,11.884A37.806,37.806,0,0,1,1292.049,196.258Z"/>
    <path d="M1082.419,222.745a56.025,56.025,0,0,1-43.312-14.849,53.586,53.586,0,0,1-14.075-20.814c-4.119-10.432-4.154-20.792-3.457-31.212,1.41-21.1,9.681-39.032,29.463-48.787,16.2-7.988,32.781-10.854,51.607-5.639,18.35,5.083,30.877,15.158,37.055,31.692,4.614,12.349,7.712,25.77,3.807,39.829-2.634,9.481-4.3,19.044-10.316,27.2a48.433,48.433,0,0,1-23.1,17.08c-4.544,1.624-8.19,5.447-13.716,4.939C1091.781,221.757,1087.076,222.512,1082.419,222.745Zm.182-98.415c-5.531,1.5-11.41-.574-16.925,3.83-7.677,6.131-11.865,13.574-12.489,22.98-.5,7.6-.148,15.254-.024,22.882.053,3.256,1.2,6.061,2.669,9.159,3.214,6.791,8.354,10.375,14.537,13.944,8.992,5.189,17.183,4.7,26.09.171,12.551-6.379,17-17.669,18.443-30.326,1-8.782.179-17.387-4.386-25.886-3.242-6.034-6.473-10.942-12.394-14.387C1093.122,123.789,1087.787,125.415,1082.6,124.33Z"/>
    <path d="M852.786,222.686C835.708,224,819.7,216.2,806.494,201.213a34.861,34.861,0,0,1-6.81-12.556c-4.789-15.2-7.17-30.385-1.5-46.636,2.858-8.191,5.986-15.6,11.355-22.057,7.609-9.155,16.55-16.411,29.1-17.573,4.974-.461,9.055-3.764,14.307-3.964,16.7-.635,32.18,3.3,45.475,13.192,9.039,6.724,14.547,16.456,17.061,27.744,1.571,7.054,4.328,13.74,3.884,21.294-.913,15.509-4.991,30.04-14.135,42.488-4.736,6.446-12.414,10.186-19.525,14.128C876.323,222.476,866.1,222.485,852.786,222.686Zm34.905-60.807c0-3.664.59-7.445-.112-10.969-2.012-10.1-5.487-19.745-15.622-24.464-6.8-3.165-14.372-1.686-21.664-1.676a20.353,20.353,0,0,0-17.956,10.5c-9.009,15.757-10.492,32.9-1.807,49.116,5.865,10.946,16.021,17.721,29.413,16.137,11.078-1.311,19.066-6.755,24.291-17.44C887.714,175.966,887.571,169.09,887.691,161.879Z"/>
    <path d="M961.808,222.609c-8.726-.7-18.224.523-26.57-5.086-1.609-1.082-3.761-1.262-4.078-3.674a71.4,71.4,0,0,1-.069-18.916c.45-3.321,3.208-4.7,5.757-2.212,2.423,2.367,5.816,1.8,8.015,3.507,7.631,5.924,16.388,4.308,24.894,4.323,4.379.008,10.3-4.341,11.376-7.834a11.806,11.806,0,0,0-5.767-13.367c-6.864-3.6-13.983-6.737-21.052-9.94-11.378-5.155-20.763-11.642-22.643-25.577-1.915-14.19.392-26.457,12.994-34.777,14.532-9.595,30.018-14.5,47.282-7.411a15.549,15.549,0,0,0,2.912.671c8.878,1.745,8.891,1.743,8.945,10.988.023,4,0,8-.039,11.992-.036,3.912-2.952,5.027-5.215,3.109-5.785-4.9-13.341-2.983-19.633-6.084-4.829-2.38-16.662,3.366-18.651,8.2-1.286,3.124-.915,6.126,1.438,9.238,4.664,6.168,11.6,8.781,18.128,11.1a63.742,63.742,0,0,1,18.459,10.231c11.264,8.93,15.848,28.745,8.9,41.305-3.35,6.055-9.179,10.836-15.269,14.569C982.817,222.548,972.512,222.594,961.808,222.609Z"/>
    <path d="M704.5,131.9a61.8,61.8,0,0,0-36.335-7.1c-11.985,1.223-21.55,10.944-24.358,21.178-1.042,3.8-1.88,7.654-3.022,11.473-2.909,9.73,4.936,30.322,13.549,35.817,7.58,4.834,15.479,8.923,25.092,7.382,6.622-1.061,12.106-4.679,17.948-7.436,6.392-3.016,7.994-2.311,8.3,4.791a22.551,22.551,0,0,1,0,3c-.441,4.855,2.086,11.118-2.507,14.125-4.751,3.111-10.022,6.465-16.187,6.762-8.315.4-16.658,1.375-24.961.384-21.153-2.525-37.114-11.789-45.982-32.556-6.53-15.29-6.174-30.994-2.82-45.812,4.261-18.824,16.606-34.066,35.395-40.206,13.7-4.478,28.615-9.635,43.471-1.879,1.656.865,3.914.582,5.894.823a8.057,8.057,0,0,1,7.47,7.9C705.856,117.107,706.416,123.8,704.5,131.9Z"/>
    <path d="M757.006,115.341c4.826-8.929,12.639-12.5,21.118-15.125,3.294-1.017,6.642-1.441,9.795-.235,4.4,1.683,8.139,3.911,7.34,9.956-.607,4.585-.279,9.318-.1,13.974s-2.128,5.854-6.21,5.018a20.49,20.49,0,0,1-2.888-.753c-12.094-4.391-21.078-.2-27.321,10.767-3.027,5.319-3.732,10.433-3.771,16-.124,17.988-.064,35.977-.156,53.965-.054,10.518-1.684,12.142-12.136,12.3-17.952.28-19.205.508-18.993-18.481.328-29.312.02-58.631.118-87.946.041-12.239-2.24-12.191,12.594-12.2h3C753.1,102.583,753.1,102.583,757.006,115.341Z"/>
    <path d="M563.513,160.524c0-16.983.139-33.968-.079-50.949-.065-5.006,1.347-7.359,6.712-7.05,5.975.344,11.984.077,17.976.172,3.547.057,5.543,1.838,5.571,5.538.018,2.331.118,4.66.119,6.991q.012,45.454,0,90.911a55.846,55.846,0,0,1-.175,6.985c-.616,4.853-3.134,7.6-8.381,8.123-20.966,2.081-21.746,1.457-21.747-19.76Q563.508,181,563.513,160.524Z"/>
    <path d="M578.709,52.532c10.835-.771,17.238,6.624,16.934,15.35-.373,10.687-6.414,16.8-17.267,17.023-9.858.206-16.189-5.861-16.524-16.482C561.547,58.787,568.3,52.529,578.709,52.532Z"/>
  </g>
</svg>
